<svg width="271" height="49" viewBox="0 0 271 49" fill="none" xmlns="http://www.w3.org/2000/svg">
<path d="M33.994 0C33.994 4.45119 33.1176 8.8588 31.4147 12.9712C29.7119 17.0835 27.2159 20.8201 24.0695 23.9676C20.923 27.1151 17.1876 29.6118 13.0765 31.3152C8.9654 33.0186 4.55917 33.8953 0.109375 33.8953L0.109377 14.9552C2.07271 14.9552 4.01682 14.5684 5.8307 13.8168C7.64458 13.0653 9.29272 11.9637 10.681 10.5749C12.0693 9.18622 13.1705 7.53756 13.9219 5.72311C14.6732 3.90866 15.0599 1.96395 15.0599 0H33.994Z" fill="#FFD34F"/>
<path d="M0.109374 15.1047C4.55917 15.1047 8.9654 15.9814 13.0765 17.6848C17.1876 19.3882 20.923 21.885 24.0695 25.0324C27.2159 28.1799 29.7119 31.9165 31.4147 36.0288C33.1176 40.1412 33.994 44.5488 33.994 49L15.0599 49C15.0599 47.036 14.6732 45.0913 13.9219 43.2769C13.1705 41.4624 12.0693 39.8138 10.681 38.4251C9.29271 37.0363 7.64458 35.9347 5.8307 35.1832C4.01682 34.4316 2.07271 34.0448 0.109374 34.0448L0.109374 15.1047Z" fill="#FF183D"/>
<path d="M15.2091 49C15.2091 44.5488 16.0855 40.1412 17.7884 36.0288C19.4913 31.9165 21.9872 28.1799 25.1337 25.0324C28.2802 21.8849 32.0156 19.3882 36.1266 17.6848C40.2377 15.9814 44.644 15.1047 49.0938 15.1047L49.0937 34.0448C47.1304 34.0448 45.1863 34.4316 43.3724 35.1832C41.5585 35.9347 39.9104 37.0363 38.5221 38.4251C37.1338 39.8138 36.0326 41.4624 35.2813 43.2769C34.5299 45.0913 34.1432 47.0361 34.1432 49L15.2091 49Z" fill="#0381EB"/>
<path d="M267.822 47.9885C266.445 47.9885 265.18 47.833 264.025 47.5221C262.915 47.2555 261.938 46.8335 261.094 46.256C260.295 45.6785 259.606 44.9456 259.029 44.0571C258.452 43.1686 258.03 42.1469 257.764 40.9919C257.497 39.8369 257.364 38.5487 257.364 37.1271L257.297 3.7434C257.297 3.12148 257.364 2.5884 257.497 2.14418C257.63 1.69995 257.897 1.34457 258.296 1.07803C258.741 0.811492 259.384 0.678223 260.228 0.678223C261.116 0.678223 261.76 0.811492 262.16 1.07803C262.604 1.30014 262.893 1.63332 263.026 2.07754C263.159 2.47735 263.226 2.98821 263.226 3.61013V37.327C263.226 38.1267 263.315 38.8152 263.492 39.3927C263.67 39.9702 263.936 40.4811 264.292 40.9253C264.691 41.3251 265.18 41.6138 265.757 41.7915C266.334 41.9692 267.023 42.0581 267.822 42.0581C268.577 42.0581 269.177 42.1469 269.621 42.3246C270.065 42.5023 270.376 42.8133 270.553 43.2575C270.775 43.7017 270.886 44.3014 270.886 45.0566C270.886 45.7674 270.775 46.3449 270.553 46.7891C270.331 47.1889 269.998 47.4777 269.554 47.6553C269.11 47.8775 268.533 47.9885 267.822 47.9885ZM252.101 47.9885C250.769 47.9885 249.548 47.833 248.438 47.5221C247.372 47.2555 246.439 46.8557 245.64 46.3227C244.841 45.7452 244.174 45.0344 243.641 44.1904C243.109 43.3019 242.709 42.2802 242.442 41.1252C242.22 39.9258 242.109 38.5931 242.109 37.1271V3.7434C242.109 3.12148 242.176 2.5884 242.309 2.14418C242.442 1.69995 242.709 1.34457 243.109 1.07803C243.553 0.811492 244.197 0.678223 245.04 0.678223C245.884 0.678223 246.506 0.811492 246.906 1.07803C247.35 1.30014 247.638 1.63332 247.772 2.07754C247.949 2.47735 248.038 2.98821 248.038 3.61013V37.327C248.038 38.3488 248.193 39.215 248.504 39.9258C248.815 40.6365 249.281 41.1696 249.903 41.525C250.525 41.8804 251.258 42.0581 252.101 42.0581C252.768 42.0581 253.3 42.1469 253.7 42.3246C254.1 42.5023 254.388 42.8133 254.566 43.2575C254.744 43.7017 254.833 44.3014 254.833 45.0566C254.833 45.7674 254.722 46.3449 254.499 46.7891C254.322 47.1889 254.033 47.4777 253.633 47.6553C253.278 47.8775 252.768 47.9885 252.101 47.9885Z" fill="#004487"/>
<path d="M221.791 48.3217C219.126 48.3217 216.75 47.8774 214.663 46.989C212.576 46.1005 210.799 44.9011 209.334 43.3907C207.913 41.8359 206.825 40.059 206.07 38.06C205.315 36.061 204.938 33.9064 204.938 31.5965C204.938 28.5313 205.648 25.7993 207.069 23.4005C208.49 21.0016 210.444 19.1136 212.931 17.7365C215.462 16.315 218.349 15.6042 221.591 15.6042C223.811 15.6042 225.787 15.9596 227.519 16.6704C229.296 17.3367 230.806 18.2474 232.049 19.4024C233.293 20.5574 234.247 21.8457 234.914 23.2672C235.58 24.6887 235.913 26.1102 235.913 27.5318C235.913 29.7973 235.38 31.3966 234.314 32.3294C233.248 33.2179 231.938 33.6621 230.384 33.6621H211.133C211.088 35.6167 211.599 37.3048 212.665 38.7263C213.775 40.1034 215.152 41.1696 216.795 41.9248C218.482 42.68 220.17 43.0575 221.857 43.0575C223.101 43.0575 224.167 42.9909 225.055 42.8576C225.943 42.7244 226.72 42.5467 227.386 42.3246C228.052 42.1025 228.63 41.8803 229.118 41.6582C229.607 41.4361 230.029 41.214 230.384 40.9919C230.783 40.7698 231.161 40.6143 231.516 40.5254C231.916 40.4366 232.293 40.481 232.649 40.6587C233.048 40.792 233.359 41.0807 233.581 41.525C233.848 41.8803 234.025 42.2135 234.114 42.5245C234.203 42.8354 234.247 43.1686 234.247 43.524C234.247 44.1459 233.714 44.8345 232.649 45.5896C231.583 46.3448 230.095 46.989 228.186 47.522C226.32 48.0551 224.189 48.3217 221.791 48.3217ZM211.133 29.7307H227.853C228.696 29.7307 229.318 29.6196 229.718 29.3975C230.162 29.1754 230.384 28.5757 230.384 27.5984C230.384 26.3546 230.006 25.244 229.251 24.2667C228.496 23.245 227.453 22.4231 226.121 21.8012C224.833 21.1793 223.345 20.8684 221.657 20.8684C219.703 20.8684 217.905 21.2682 216.262 22.0678C214.663 22.823 213.397 23.8669 212.465 25.1996C211.532 26.5323 211.088 28.0426 211.133 29.7307Z" fill="#004487"/>
<path d="M168.288 47.7886C167.622 47.7886 167.089 47.6776 166.689 47.4555C166.334 47.2778 166.045 47.0334 165.823 46.7225C165.646 46.3671 165.513 45.9895 165.424 45.5897L155.099 19.3358C154.877 18.6695 154.766 18.1142 154.766 17.67C154.81 17.2257 154.988 16.8481 155.299 16.5372C155.654 16.2262 156.164 15.9597 156.831 15.7376C157.896 15.3378 158.718 15.2489 159.295 15.471C159.873 15.6487 160.339 16.2262 160.694 17.2035L168.288 37.4603L175.349 17.67C175.482 17.3146 175.638 16.9814 175.815 16.6705C176.037 16.3151 176.348 16.0263 176.748 15.8042C177.148 15.5821 177.658 15.471 178.28 15.471C178.991 15.471 179.524 15.5821 179.879 15.8042C180.279 16.0263 180.589 16.2929 180.811 16.6038C181.078 16.9148 181.256 17.2479 181.344 17.6033L188.339 37.5936L195.933 17.5367C196.332 16.4705 196.821 15.782 197.398 15.471C198.02 15.1601 198.864 15.2045 199.929 15.6043C200.862 15.9153 201.484 16.3595 201.795 16.937C202.106 17.5145 202.039 18.3363 201.595 19.4025L191.27 45.6563C191.137 46.0117 190.959 46.3671 190.737 46.7225C190.559 47.0334 190.271 47.2778 189.871 47.4555C189.516 47.6776 189.027 47.7886 188.405 47.7886C187.784 47.7886 187.295 47.6998 186.94 47.5221C186.585 47.3444 186.296 47.0779 186.074 46.7225C185.852 46.3227 185.652 45.9007 185.474 45.4564L178.347 24.9331L171.153 45.4564C170.975 45.9895 170.775 46.4337 170.553 46.7891C170.375 47.1445 170.109 47.3888 169.754 47.5221C169.398 47.6998 168.91 47.7886 168.288 47.7886Z" fill="#004487"/>
<path d="M139.111 48.1217C136.801 48.1217 134.625 47.7441 132.582 46.989C130.584 46.2338 128.808 45.1454 127.253 43.7239C125.743 42.3024 124.544 40.6143 123.656 38.6597C122.813 36.6607 122.391 34.3951 122.391 31.863C122.391 29.3309 122.813 27.0875 123.656 25.1329C124.544 23.1339 125.743 21.4236 127.253 20.0021C128.763 18.5806 130.517 17.4922 132.516 16.737C134.559 15.9818 136.712 15.6042 138.977 15.6042C140.487 15.6042 141.975 15.8486 143.44 16.3372C144.906 16.7815 146.194 17.3812 147.304 18.1363C148.459 18.8471 149.28 19.6023 149.769 20.4019C150.213 20.9794 150.524 21.4681 150.701 21.8679C150.923 22.2232 150.946 22.6453 150.768 23.1339C150.59 23.4893 150.346 23.8225 150.035 24.1334C149.724 24.4 149.413 24.6221 149.103 24.7998C148.303 25.4217 147.504 25.5105 146.705 25.0663C146.216 24.5777 145.661 24.1334 145.039 23.7336C144.462 23.2894 143.84 22.8896 143.174 22.5342C142.508 22.1788 141.82 21.9123 141.109 21.7346C140.443 21.5125 139.732 21.4014 138.977 21.4014C136.89 21.4014 135.047 21.8457 133.448 22.7341C131.85 23.5781 130.606 24.7998 129.718 26.399C128.874 27.9538 128.452 29.7751 128.452 31.863C128.452 33.9509 128.874 35.7722 129.718 37.327C130.606 38.8818 131.828 40.1034 133.382 40.9919C134.981 41.8803 136.801 42.3246 138.844 42.3246C139.777 42.3246 140.665 42.2135 141.509 41.9914C142.397 41.7249 143.218 41.3917 143.973 40.9919C144.728 40.5477 145.35 40.0812 145.839 39.5926C146.283 39.2816 146.66 39.0151 146.971 38.793C147.282 38.5708 147.659 38.4598 148.103 38.4598C148.459 38.4598 148.836 38.6153 149.236 38.9262C149.635 39.1928 150.057 39.6148 150.501 40.1923C150.857 40.5921 151.057 41.0141 151.101 41.4583C151.19 41.9026 151.123 42.3246 150.901 42.7244C150.679 43.1242 150.324 43.524 149.835 43.9238C149.125 44.6346 148.17 45.3231 146.971 45.9894C145.816 46.6114 144.551 47.1222 143.174 47.522C141.797 47.9218 140.443 48.1217 139.111 48.1217Z" fill="#004487"/>
<path d="M103.501 47.9885C102.657 47.9885 102.013 47.8553 101.569 47.5887C101.17 47.3666 100.903 47.0334 100.77 46.5892C100.681 46.1005 100.637 45.5453 100.637 44.9233V18.6695C100.637 18.0031 100.703 17.4478 100.837 17.0036C100.97 16.5594 101.236 16.2484 101.636 16.0707C102.036 15.8486 102.68 15.7376 103.568 15.7376C104.367 15.7376 104.967 15.8486 105.366 16.0707C105.81 16.2484 106.099 16.5372 106.232 16.937C106.41 17.2924 106.499 17.7144 106.499 18.203L106.232 20.2021C106.543 19.6246 106.898 19.0471 107.298 18.4696C107.742 17.8921 108.275 17.3812 108.897 16.937C109.563 16.4483 110.34 16.0485 111.228 15.7376C112.161 15.4266 113.293 15.2711 114.626 15.2711C115.292 15.2711 115.913 15.3378 116.491 15.471C117.112 15.5599 117.69 15.7153 118.223 15.9375C118.8 16.1596 119.288 16.4261 119.688 16.7371C120.088 17.0036 120.399 17.3146 120.621 17.67C120.887 17.9809 121.02 18.3585 121.02 18.8027C121.02 19.78 120.71 20.6241 120.088 21.3348C119.466 22.0012 118.822 22.3343 118.156 22.3343C117.579 22.3343 117.157 22.2677 116.89 22.1344C116.624 21.9568 116.357 21.7791 116.091 21.6014C115.869 21.4237 115.536 21.2682 115.092 21.1349C114.648 20.9572 113.937 20.8684 112.96 20.8684C112.294 20.8684 111.584 21.0017 110.829 21.2682C110.118 21.5347 109.43 21.9345 108.764 22.4676C108.097 22.9563 107.542 23.6004 107.098 24.4C106.699 25.1996 106.499 26.1325 106.499 27.1986V45.0566C106.499 45.6785 106.432 46.2116 106.299 46.6558C106.166 47.1001 105.877 47.4332 105.433 47.6553C105.033 47.8775 104.389 47.9885 103.501 47.9885Z" fill="#004487"/>
<path d="M89.7624 47.9219C88.7854 47.9219 88.0748 47.722 87.6308 47.3222C87.2311 46.9224 86.9868 46.3004 86.898 45.4564L87.1645 42.1247C86.7204 42.8355 86.032 43.6573 85.0994 44.5902C84.1669 45.4786 82.9456 46.2782 81.4357 46.989C79.9258 47.6553 78.0828 47.9885 75.9068 47.9885C73.7752 47.9885 71.7768 47.5665 69.9116 46.7225C68.0908 45.8784 66.4699 44.7012 65.0488 43.1908C63.6721 41.6805 62.5841 39.948 61.7848 37.9934C61.0298 36.0388 60.6523 33.9509 60.6523 31.7298C60.6523 29.553 61.0298 27.5096 61.7848 25.5994C62.5841 23.6448 63.6944 21.9345 65.1154 20.4686C66.5365 19.0026 68.1574 17.8476 69.9782 17.0036C71.8434 16.1596 73.8196 15.7375 75.9068 15.7375C77.8608 15.7375 79.5261 16.0041 80.9028 16.5372C82.2795 17.0258 83.4563 17.6922 84.4333 18.5362C85.4547 19.3358 86.3429 20.2465 87.0978 21.2682L86.9646 18.4696C86.9202 17.4923 87.12 16.8037 87.5641 16.4039C88.0526 15.9597 88.8076 15.7375 89.829 15.7375C90.6728 15.7375 91.2723 15.8708 91.6276 16.1374C92.0272 16.4039 92.2937 16.7815 92.4269 17.2701C92.5601 17.7588 92.6268 18.3585 92.6268 19.0693V44.7901C92.6268 45.412 92.5601 45.9673 92.4269 46.4559C92.2937 46.9446 92.0272 47.3 91.6276 47.5221C91.2279 47.7886 90.6061 47.9219 89.7624 47.9219ZM76.906 42.3912C78.6824 42.3912 80.3033 41.9248 81.7688 40.9919C83.2787 40.059 84.4555 38.8152 85.2993 37.2604C86.1875 35.6612 86.6316 33.8398 86.6316 31.7964C86.6316 29.7085 86.1653 27.8872 85.2327 26.3324C84.3445 24.7332 83.1455 23.4893 81.6355 22.6009C80.1701 21.668 78.5491 21.2016 76.7728 21.2016C74.6856 21.2016 72.8648 21.6902 71.3105 22.6675C69.8006 23.6004 68.6015 24.8664 67.7134 26.4657C66.8252 28.0649 66.3811 29.8862 66.3811 31.9297C66.3811 33.9287 66.8252 35.7278 67.7134 37.327C68.6015 38.8818 69.8228 40.1257 71.3771 41.0586C72.9758 41.947 74.8188 42.3912 76.906 42.3912Z" fill="#004487"/>
</svg>
