<svg width="339" height="339" viewBox="0 0 339 339" fill="none" xmlns="http://www.w3.org/2000/svg">
<path d="M234.5 0C234.5 30.795 228.434 61.2884 216.65 89.7393C204.865 118.19 187.592 144.041 165.817 165.817C144.041 187.592 118.19 204.865 89.7393 216.65C61.2884 228.434 30.795 234.5 0 234.5L1.52588e-05 103.466C13.5873 103.466 27.0416 100.789 39.5946 95.5898C52.1477 90.3902 63.5536 82.769 73.1613 73.1613C82.769 63.5536 90.3902 52.1476 95.5899 39.5946C100.789 27.0416 103.466 13.5873 103.466 0H234.5Z" fill="#FFD34F"/>
<path d="M-1.02503e-05 104.5C30.795 104.5 61.2884 110.566 89.7393 122.35C118.19 134.135 144.041 151.408 165.817 173.183C187.592 194.959 204.865 220.81 216.65 249.261C228.434 277.712 234.5 308.205 234.5 339L103.466 339C103.466 325.413 100.789 311.958 95.5899 299.405C90.3902 286.852 82.769 275.446 73.1613 265.839C63.5536 256.231 52.1477 248.61 39.5946 243.41C27.0416 238.211 13.5873 235.534 -4.52263e-06 235.534L-1.02503e-05 104.5Z" fill="#FF183D"/>
<path d="M104.5 339C104.5 308.205 110.565 277.712 122.35 249.261C134.135 220.81 151.408 194.959 173.183 173.183C194.959 151.408 220.81 134.135 249.261 122.35C277.712 110.566 308.205 104.5 339 104.5L339 235.534C325.413 235.534 311.958 238.211 299.405 243.41C286.852 248.61 275.446 256.231 265.839 265.839C256.231 275.446 248.61 286.852 243.41 299.405C238.21 311.958 235.534 325.413 235.534 339L104.5 339Z" fill="#0381EB"/>
</svg>
