<svg width="201" height="38" viewBox="0 0 201 38" fill="none" xmlns="http://www.w3.org/2000/svg">
  <path d="M198.188 36.2569C197.174 36.2569 196.242 36.1426 195.392 35.9142C194.574 35.7184 193.854 35.4083 193.233 34.984C192.644 34.5597 192.137 34.0212 191.712 33.3685C191.287 32.7157 190.976 31.9651 190.78 31.1165C190.583 30.268 190.485 29.3215 190.485 28.2771L190.436 3.75026C190.436 3.29334 190.485 2.90169 190.583 2.57532C190.681 2.24895 190.878 1.98785 191.172 1.79203C191.499 1.5962 191.973 1.49829 192.595 1.49829C193.249 1.49829 193.723 1.5962 194.018 1.79203C194.345 1.95521 194.558 2.19999 194.656 2.52636C194.754 2.8201 194.803 3.19543 194.803 3.65235V28.424C194.803 29.0114 194.868 29.5173 194.999 29.9416C195.13 30.3659 195.326 30.7412 195.588 31.0676C195.882 31.3613 196.242 31.5734 196.667 31.704C197.093 31.8345 197.6 31.8998 198.188 31.8998C198.744 31.8998 199.186 31.9651 199.513 32.0956C199.84 32.2262 200.069 32.4546 200.2 32.781C200.364 33.1074 200.445 33.548 200.445 34.1028C200.445 34.625 200.364 35.0493 200.2 35.3757C200.036 35.6694 199.791 35.8815 199.464 36.0121C199.137 36.1753 198.712 36.2569 198.188 36.2569ZM186.609 36.2569C185.628 36.2569 184.728 36.1426 183.91 35.9142C183.125 35.7184 182.439 35.4246 181.85 35.033C181.261 34.6087 180.77 34.0865 180.378 33.4664C179.985 32.8137 179.691 32.063 179.495 31.2144C179.331 30.3332 179.249 29.3541 179.249 28.2771V3.75026C179.249 3.29334 179.298 2.90169 179.397 2.57532C179.495 2.24895 179.691 1.98785 179.985 1.79203C180.312 1.5962 180.787 1.49829 181.408 1.49829C182.03 1.49829 182.488 1.5962 182.782 1.79203C183.109 1.95521 183.322 2.19999 183.42 2.52636C183.551 2.8201 183.616 3.19543 183.616 3.65235V28.424C183.616 29.1746 183.731 29.811 183.96 30.3332C184.189 30.8554 184.532 31.2471 184.99 31.5082C185.448 31.7693 185.988 31.8998 186.609 31.8998C187.1 31.8998 187.492 31.9651 187.787 32.0956C188.081 32.2262 188.294 32.4546 188.424 32.781C188.555 33.1074 188.621 33.548 188.621 34.1028C188.621 34.625 188.539 35.0493 188.375 35.3757C188.245 35.6694 188.032 35.8815 187.738 36.0121C187.476 36.1753 187.1 36.2569 186.609 36.2569Z" fill="white"/>
  <path d="M164.283 36.5017C162.32 36.5017 160.57 36.1753 159.033 35.5225C157.495 34.8698 156.187 33.9886 155.107 32.8789C154.061 31.7366 153.259 30.4311 152.703 28.9625C152.147 27.4938 151.869 25.9109 151.869 24.2138C151.869 21.9618 152.393 19.9546 153.439 18.1922C154.486 16.4298 155.925 15.0427 157.757 14.031C159.621 12.9866 161.748 12.4644 164.135 12.4644C165.771 12.4644 167.226 12.7255 168.502 13.2477C169.811 13.7372 170.923 14.4063 171.839 15.2549C172.754 16.1034 173.458 17.0499 173.948 18.0943C174.439 19.1387 174.684 20.1831 174.684 21.2275C174.684 22.892 174.292 24.0669 173.507 24.7523C172.722 25.405 171.757 25.7314 170.612 25.7314H156.432C156.399 27.1674 156.776 28.4076 157.561 29.452C158.378 30.4638 159.392 31.2471 160.603 31.8019C161.846 32.3567 163.089 32.6342 164.332 32.6342C165.248 32.6342 166.033 32.5852 166.687 32.4873C167.341 32.3894 167.913 32.2588 168.404 32.0956C168.895 31.9324 169.32 31.7693 169.68 31.6061C170.04 31.4429 170.35 31.2797 170.612 31.1165C170.906 30.9533 171.184 30.8391 171.446 30.7738C171.74 30.7086 172.019 30.7412 172.28 30.8717C172.575 30.9697 172.804 31.1818 172.967 31.5082C173.163 31.7693 173.294 32.014 173.36 32.2425C173.425 32.471 173.458 32.7157 173.458 32.9768C173.458 33.4338 173.065 33.9396 172.28 34.4945C171.495 35.0493 170.399 35.5225 168.993 35.9142C167.619 36.3058 166.049 36.5017 164.283 36.5017ZM156.432 22.843H168.747C169.369 22.843 169.827 22.7614 170.121 22.5982C170.448 22.435 170.612 21.9944 170.612 21.2764C170.612 20.3626 170.334 19.5466 169.778 18.8286C169.222 18.078 168.453 17.4742 167.472 17.0173C166.523 16.5603 165.427 16.3319 164.184 16.3319C162.745 16.3319 161.42 16.6256 160.21 17.2131C159.033 17.7679 158.1 18.5349 157.413 19.514C156.727 20.4931 156.399 21.6028 156.432 22.843Z" fill="white"/>
  <path d="M124.875 36.11C124.385 36.11 123.992 36.0284 123.698 35.8652C123.436 35.7347 123.224 35.5552 123.06 35.3267C122.929 35.0656 122.831 34.7882 122.766 34.4945L115.161 15.2059C114.997 14.7163 114.915 14.3084 114.915 13.982C114.948 13.6556 115.079 13.3782 115.308 13.1498C115.569 12.9213 115.946 12.7255 116.436 12.5623C117.221 12.2686 117.826 12.2033 118.252 12.3665C118.677 12.497 119.02 12.9213 119.282 13.6393L124.875 28.5219L130.076 13.982C130.174 13.7209 130.289 13.4761 130.42 13.2477C130.583 12.9866 130.812 12.7744 131.107 12.6112C131.401 12.4481 131.777 12.3665 132.235 12.3665C132.759 12.3665 133.151 12.4481 133.413 12.6112C133.707 12.7744 133.936 12.9703 134.1 13.1987C134.296 13.4272 134.427 13.672 134.492 13.9331L139.644 28.6198L145.237 13.8841C145.532 13.1008 145.892 12.5949 146.317 12.3665C146.775 12.138 147.396 12.1706 148.181 12.4644C148.868 12.6928 149.326 13.0192 149.555 13.4435C149.784 13.8678 149.735 14.4716 149.408 15.2549L141.803 34.5434C141.705 34.8045 141.574 35.0656 141.41 35.3267C141.279 35.5552 141.067 35.7347 140.772 35.8652C140.511 36.0284 140.151 36.11 139.693 36.11C139.235 36.11 138.875 36.0447 138.614 35.9142C138.352 35.7836 138.139 35.5878 137.976 35.3267C137.812 35.033 137.665 34.7229 137.534 34.3966L132.284 19.3182L126.985 34.3966C126.854 34.7882 126.707 35.1146 126.544 35.3757C126.413 35.6368 126.217 35.8163 125.955 35.9142C125.693 36.0447 125.333 36.11 124.875 36.11Z" fill="white"/>
  <path d="M103.383 36.3548C101.682 36.3548 100.079 36.0774 98.5743 35.5225C97.1024 34.9677 95.794 34.1681 94.6491 33.1237C93.537 32.0793 92.6538 30.8391 91.9996 29.4031C91.3781 27.9344 91.0674 26.2699 91.0674 24.4096C91.0674 22.5493 91.3781 20.9011 91.9996 19.4651C92.6538 17.9964 93.537 16.7399 94.6491 15.6955C95.7612 14.6511 97.0533 13.8515 98.5252 13.2966C100.03 12.7418 101.616 12.4644 103.285 12.4644C104.397 12.4644 105.492 12.6439 106.572 13.0029C107.651 13.3293 108.6 13.7699 109.418 14.3247C110.268 14.8469 110.873 15.4017 111.233 15.9892C111.56 16.4135 111.789 16.7725 111.92 17.0662C112.084 17.3273 112.1 17.6374 111.969 17.9964C111.838 18.2575 111.658 18.5023 111.429 18.7307C111.2 18.9265 110.971 19.0897 110.742 19.2203C110.154 19.6772 109.565 19.7425 108.976 19.4161C108.616 19.0571 108.207 18.7307 107.749 18.437C107.324 18.1106 106.866 17.8169 106.376 17.5558C105.885 17.2947 105.378 17.0989 104.855 16.9683C104.364 16.8051 103.841 16.7235 103.285 16.7235C101.747 16.7235 100.39 17.0499 99.2121 17.7026C98.0346 18.3228 97.1187 19.2203 96.4645 20.3952C95.843 21.5375 95.5323 22.8756 95.5323 24.4096C95.5323 25.9435 95.843 27.2817 96.4645 28.424C97.1187 29.5663 98.0182 30.4638 99.1631 31.1165C100.341 31.7693 101.682 32.0956 103.186 32.0956C103.873 32.0956 104.528 32.014 105.149 31.8509C105.803 31.655 106.408 31.4103 106.964 31.1165C107.52 30.7902 107.978 30.4475 108.338 30.0884C108.665 29.86 108.943 29.6642 109.172 29.501C109.401 29.3378 109.679 29.2562 110.006 29.2562C110.268 29.2562 110.546 29.3704 110.841 29.5989C111.135 29.7947 111.446 30.1048 111.773 30.5291C112.034 30.8228 112.182 31.1328 112.214 31.4592C112.28 31.7856 112.231 32.0956 112.067 32.3894C111.904 32.6831 111.642 32.9768 111.282 33.2706C110.759 33.7928 110.055 34.2986 109.172 34.7882C108.322 35.2451 107.39 35.6204 106.376 35.9142C105.362 36.2079 104.364 36.3548 103.383 36.3548Z" fill="white"/>
  <path d="M77.1532 36.2569C76.5317 36.2569 76.0574 36.159 75.7304 35.9631C75.436 35.7999 75.2397 35.5552 75.1416 35.2288C75.0761 34.8698 75.0434 34.4618 75.0434 34.0049V14.7163C75.0434 14.2268 75.0925 13.8188 75.1906 13.4925C75.2888 13.1661 75.485 12.9376 75.7794 12.8071C76.0738 12.6439 76.5481 12.5623 77.2023 12.5623C77.7911 12.5623 78.2327 12.6439 78.5271 12.8071C78.8542 12.9376 79.0668 13.1498 79.1649 13.4435C79.2957 13.7046 79.3611 14.0146 79.3611 14.3737L79.1649 15.8423C79.3939 15.418 79.6555 14.9938 79.9499 14.5695C80.277 14.1452 80.6696 13.7699 81.1275 13.4435C81.6182 13.0845 82.1906 12.7908 82.8448 12.5623C83.5317 12.3338 84.3658 12.2196 85.3471 12.2196C85.8377 12.2196 86.2957 12.2686 86.7209 12.3665C87.1788 12.4317 87.6041 12.546 87.9966 12.7092C88.4218 12.8723 88.7816 13.0682 89.076 13.2966C89.3704 13.4925 89.5994 13.7209 89.7629 13.982C89.9592 14.2105 90.0573 14.4879 90.0573 14.8143C90.0573 15.5323 89.8283 16.1524 89.3704 16.6746C88.9125 17.1641 88.4382 17.4089 87.9475 17.4089C87.5223 17.4089 87.2115 17.36 87.0153 17.262C86.819 17.1315 86.6228 17.0009 86.4265 16.8704C86.263 16.7399 86.0176 16.6256 85.6905 16.5277C85.3634 16.3972 84.8401 16.3319 84.1205 16.3319C83.6298 16.3319 83.1065 16.4298 82.5504 16.6256C82.027 16.8214 81.52 17.1152 81.0294 17.5068C80.5387 17.8658 80.1298 18.3391 79.8027 18.9265C79.5084 19.514 79.3611 20.1994 79.3611 20.9827V34.1028C79.3611 34.5597 79.3121 34.9514 79.214 35.2778C79.1158 35.6041 78.9032 35.8489 78.5761 36.0121C78.2817 36.1753 77.8074 36.2569 77.1532 36.2569Z" fill="white"/>
  <path d="M67.0351 36.2079C66.3155 36.2079 65.7921 36.0611 65.465 35.7673C65.1707 35.4736 64.9908 35.0167 64.9253 34.3966L65.1216 31.9488C64.7945 32.471 64.2875 33.0747 63.6006 33.7601C62.9137 34.4129 62.0141 35.0003 60.902 35.5225C59.7899 36.0121 58.4324 36.2569 56.8296 36.2569C55.2595 36.2569 53.7876 35.9468 52.4138 35.3267C51.0727 34.7066 49.8788 33.8417 48.832 32.7321C47.818 31.6224 47.0166 30.3496 46.4279 28.9135C45.8718 27.4775 45.5938 25.9435 45.5938 24.3117C45.5938 22.7125 45.8718 21.2111 46.4279 19.8077C47.0166 18.3717 47.8344 17.1152 48.8811 16.0382C49.9278 14.9611 51.1217 14.1126 52.4628 13.4925C53.8367 12.8723 55.2922 12.5623 56.8296 12.5623C58.2689 12.5623 59.4955 12.7581 60.5095 13.1498C61.5235 13.5088 62.3903 13.9983 63.1099 14.6184C63.8623 15.2059 64.5165 15.875 65.0725 16.6256L64.9744 14.5695C64.9417 13.8515 65.0889 13.3456 65.416 13.0519C65.7758 12.7255 66.3319 12.5623 67.0842 12.5623C67.7057 12.5623 68.1473 12.6602 68.4089 12.856C68.7033 13.0519 68.8996 13.3293 68.9977 13.6883C69.0959 14.0473 69.1449 14.4879 69.1449 15.0101V33.907C69.1449 34.3639 69.0959 34.7719 68.9977 35.1309C68.8996 35.4899 68.7033 35.751 68.4089 35.9142C68.1146 36.11 67.6566 36.2079 67.0351 36.2079ZM57.5656 32.1446C58.874 32.1446 60.0679 31.8019 61.1473 31.1165C62.2595 30.4311 63.1263 29.5173 63.7478 28.375C64.402 27.2001 64.7291 25.8619 64.7291 24.3606C64.7291 22.8267 64.3856 21.4886 63.6987 20.3463C63.0445 19.1713 62.1613 18.2575 61.0492 17.6047C59.9698 16.9194 58.7759 16.5767 57.4675 16.5767C55.9301 16.5767 54.589 16.9357 53.4441 17.6537C52.332 18.3391 51.4488 19.2692 50.7946 20.4442C50.1404 21.6191 49.8133 22.9572 49.8133 24.4585C49.8133 25.9272 50.1404 27.249 50.7946 28.424C51.4488 29.5663 52.3484 30.4801 53.4932 31.1655C54.6708 31.8182 56.0282 32.1446 57.5656 32.1446Z" fill="white"/>
  <path d="M25.9582 1C25.9582 4.27026 25.3126 7.5085 24.0584 10.5298C22.8041 13.5512 20.9657 16.2964 18.6481 18.6088C16.3305 20.9213 13.5792 22.7556 10.5511 24.0071C7.52302 25.2585 4.27756 25.9027 1 25.9027L1 11.9875C2.44612 11.9875 3.87808 11.7033 5.21412 11.1511C6.55016 10.599 7.76411 9.78963 8.78667 8.76934C9.80923 7.74906 10.6204 6.5378 11.1738 5.20474C11.7272 3.87167 12.012 2.4429 12.012 1H25.9582Z" fill="#FFD34F"/>
  <path d="M1 12.0973C4.27756 12.0973 7.52302 12.7415 10.5511 13.9929C13.5792 15.2444 16.3305 17.0787 18.6481 19.3912C20.9657 21.7036 22.8041 24.4488 24.0584 27.4702C25.3126 30.4915 25.9582 33.7297 25.9582 37L12.012 37C12.012 35.5571 11.7272 34.1283 11.1738 32.7953C10.6204 31.4622 9.80923 30.2509 8.78667 29.2307C7.76411 28.2104 6.55016 27.401 5.21412 26.8489C3.87808 26.2967 2.44612 26.0125 1 26.0125L1 12.0973Z" fill="#FF183D"/>
  <path d="M12.1221 37C12.1221 33.7297 12.7677 30.4915 14.0219 27.4702C15.2762 24.4488 17.1146 21.7036 19.4322 19.3912C21.7498 17.0787 24.5011 15.2444 27.5292 13.9929C30.5573 12.7415 33.8027 12.0973 37.0803 12.0973V26.0125C35.6342 26.0125 34.2022 26.2967 32.8662 26.8489C31.5301 27.401 30.3162 28.2104 29.2936 29.2307C28.2711 30.2509 27.4599 31.4622 26.9065 32.7953C26.3531 34.1283 26.0683 35.5571 26.0683 37L12.1221 37Z" fill="#0381EB"/>
  <path d="M26.4582 1C26.4582 0.723858 26.2343 0.5 25.9582 0.5H12.012C11.7359 0.5 11.512 0.723858 11.512 1C11.512 2.37708 11.2402 3.74071 10.712 5.01303C10.1838 6.28535 9.40959 7.44149 8.43351 8.4154C7.45743 9.38931 6.29859 10.1619 5.02314 10.689C3.74768 11.2162 2.38061 11.4875 1 11.4875C0.723859 11.4875 0.500002 11.7114 0.500002 11.9875V12.0963C0.500001 12.0967 0.500001 12.097 0.500001 12.0973L0.500001 18.7867L0.5 25.9027C0.5 25.903 0.5 25.9034 0.500001 25.9037V26.0125C0.500001 26.2886 0.723859 26.5125 1 26.5125C2.38061 26.5125 3.74768 26.7838 5.02314 27.311C6.2986 27.8381 7.45743 28.6107 8.43351 29.5846C9.40959 30.5585 10.1838 31.7146 10.712 32.987C11.2402 34.2593 11.512 35.6229 11.512 37C11.512 37.2761 11.7359 37.5 12.012 37.5H12.1221L25.9582 37.5C25.9583 37.5 25.9583 37.5 25.9584 37.5H26.0683C26.2009 37.5 26.3281 37.4473 26.4218 37.3536C26.5156 37.2598 26.5683 37.1326 26.5683 37C26.5683 35.6229 26.8401 34.2593 27.3683 32.987C27.8965 31.7146 28.6707 30.5585 29.6468 29.5846C30.6229 28.6107 31.7817 27.8381 33.0572 27.311C34.3326 26.7838 35.6997 26.5125 37.0803 26.5125C37.3564 26.5125 37.5803 26.2886 37.5803 26.0125V12.0973C37.5803 11.8212 37.3564 11.5973 37.0803 11.5973C33.7372 11.5973 30.4269 12.2543 27.3382 13.5309C24.2496 14.8074 21.4431 16.6784 19.079 19.0372C19.066 19.0502 19.0531 19.0631 19.0401 19.0761C19.0272 19.0631 19.0142 19.0502 19.0013 19.0372C18.9888 19.0248 18.9764 19.0124 18.9639 19C18.9764 18.9876 18.9888 18.9752 19.0013 18.9628C21.3653 16.604 23.2407 13.8036 24.5202 10.7215C25.7996 7.63946 26.4582 4.33608 26.4582 1Z" stroke="white"/>
</svg>