<svg width="1874" height="1880" viewBox="0 0 1874 1880" fill="none" xmlns="http://www.w3.org/2000/svg">
<path d="M950.401 1083.69C934.161 1180.28 1032.86 1257.68 1104.25 1251.54C1288.33 1235.7 1347.43 1045.24 1297.97 894.52C1162.51 481.729 655.811 598.52 533.178 910.064C305.148 1489.36 962.522 1770.7 1348.27 1464.81C1527.2 1322.93 1661.39 1118.95 1615.07 879.574C1463.33 95.3727 412.393 124.6 233.342 928.229" stroke="#FFD34F" stroke-width="3" stroke-linecap="round"/>
<path d="M920.822 1083.34C885.202 1174.58 966.013 1270.51 1037.15 1279.07C1220.59 1301.16 1317.33 1126.78 1299.69 969.132C1251.38 537.379 731.51 548.243 547.844 828.182C206.328 1348.71 792.405 1758.35 1232.49 1537.68C1436.61 1435.32 1609.63 1263.04 1613.17 1019.25C1624.75 220.589 589.992 34.6035 250.617 784.739" stroke="#077EE5" stroke-width="3" stroke-linecap="round"/>
<path d="M866.467 1065.69C798.181 1135.9 835.347 1255.69 897.56 1291.24C1057.98 1382.9 1214.91 1259.84 1259.94 1107.74C1383.27 691.164 900.06 499.077 622.016 685.6C105.011 1032.43 485.749 1637.68 977.004 1605.44C1204.86 1590.49 1431.24 1499.02 1529.27 1275.78C1850.42 544.433 969.345 -29.1766 365.054 530.03" stroke="#FF183A" stroke-width="3" stroke-linecap="round"/>
<path d="M836.863 735.566C824.781 700.422 822.526 689.186 825.058 652.556C826.488 631.861 835.159 619.291 848.389 605.051C861.618 590.812 897.092 573.835 939.057 576.735C971.105 578.95 1009.41 579.175 1033.98 602.841C1065.64 633.338 1065.32 680.121 1057.91 720.771C1044.42 794.791 960.89 806.01 918.023 798.089C896.148 794.047 882.736 789.914 865.668 775.648C850.878 763.286 841.827 750.006 836.863 735.566Z" stroke="black" stroke-width="3" stroke-linecap="round"/>
<path d="M815.552 675.174C815.083 655.078 817.174 635.215 819.464 615.345C826.406 555.12 885.829 505.894 946.247 510.069C983.686 512.657 1030.83 539.576 1053.1 570.743C1072.78 598.295 1077.81 633.753 1075.52 666.874C1074.26 685.082 1070.03 702.88 1068.77 720.994L1068.74 721.532C1067.4 740.894 1065.63 766.55 1051.54 781.74C1037.47 796.915 1021.78 808.487 1009.31 807.625C968.894 805.307 911.917 806.723 871.745 801.634C857.689 799.853 841.361 790.252 832.144 779.981C822.223 768.926 815.749 754.007 814.114 739.497C811.744 718.456 816.047 696.343 815.552 675.174Z" stroke="black" stroke-width="3" stroke-linecap="round"/>
<path d="M734.97 818.632C729.005 781.651 729.682 768.459 737.046 740.268C741.982 721.374 765.086 709.94 761.855 696.85C759.464 687.165 769.462 676.322 765.921 667.012C762.12 657.016 763.819 645.839 763.541 635.384C762.872 610.25 758.371 585.65 756.734 560.625C755.508 541.877 766.78 528.194 774.636 511.91C777.869 505.21 797.112 504.713 803.22 504.419C812.469 503.974 821.156 512.503 828.062 504.354C831.092 500.778 834.68 501.583 839.443 501.632C903.68 502.29 967.956 501.098 1031.95 503.145C1037.5 503.323 1056.94 500.204 1061.11 504.994C1070.25 515.489 1085.24 518.108 1095.27 529.63C1112.53 549.447 1108.45 575.357 1108.56 599.212C1108.58 601.656 1108.81 604.317 1108.99 606.759C1109.31 611.16 1114.48 614.43 1115.12 618.71C1115.58 621.731 1115.26 625.543 1115.28 628.578C1115.32 639.116 1115.76 650.043 1115.3 660.544C1114.97 667.959 1115.28 675.276 1114.76 682.727C1114.1 692.309 1112.24 702.659 1112.95 712.283C1113.24 716.267 1113.81 720.323 1113.84 724.318C1113.95 738.832 1101.46 744.182 1089.91 750.539M1089.91 750.539C1089.2 750.929 1088.93 751.078 1089.57 750.707C1089.72 750.621 1089.83 750.567 1089.91 750.539ZM1089.91 750.539C1090.75 750.22 1087.26 753.187 1090.01 750.793" stroke="#00192F" stroke-width="3" stroke-linecap="round"/>
<path d="M1089.2 1051.21C1089.46 1047.39 1088.68 1043.22 1086.98 1039.81C1084.24 1034.3 1083.75 1027.03 1082.26 1021.11C1079.38 1009.69 1073.43 1000.74 1067.82 990.65C1063.25 982.413 1052.74 973.501 1043.45 971.814C1021.29 967.789 1016.03 978.812 1002.31 988.574C998.013 991.636 993.711 995.153 991.066 999.826C986.99 1007.03 981.617 1013.75 978.224 1021.27C976.378 1025.36 965.381 1046.73 975.145 1047.41" stroke="black" stroke-width="3" stroke-linecap="round"/>
<path d="M1018.17 991.174C1007.11 1000.8 1001.17 1011.07 995.284 1024.17C993.691 1027.72 990.697 1030.57 989.35 1034.29C988.516 1036.59 986.779 1041.51 984.533 1042.76C976.231 1047.35 966.807 1052.67 966.11 1062.76C965.811 1067.08 972.138 1069.19 975.617 1069.43C984.386 1070.03 994.439 1067.95 1001.44 1062.41C1004.3 1060.15 1015.89 1053.79 1019.14 1051.61C1012.2 1055.78 1007.57 1058.53 1006.52 1059.03C1004.46 1060.01 1002.94 1061.74 1000.79 1062.2C997.098 1062.98 995.728 1068.02 997.858 1070.74C1000.89 1074.62 1005.96 1076.54 1010.74 1076.87C1022.06 1077.65 1033.34 1082.04 1045.03 1081.18C1049.38 1080.87 1055.89 1076.79 1058.39 1073.14C1060.37 1070.26 1066.11 1076.47 1067.64 1072.22C1069.66 1066.66 1070.05 1065.25 1075.62 1062.3C1079.11 1060.46 1082.4 1057.93 1085.85 1056.22C1087.95 1055.17 1089.13 1052.53 1091.19 1051.35" stroke="#00192F" stroke-width="3" stroke-linecap="round"/>
<path d="M1066.8 1070.72C1062.72 1065.49 1062.02 1058.61 1059.08 1052.75C1055.62 1045.87 1050.99 1039.81 1045.72 1034.18C1041.38 1029.54 1037.16 1024.83 1033 1020.04C1030.72 1017.43 1029.07 1013.84 1025.7 1012.75" stroke="black" stroke-width="3" stroke-linecap="round"/>
<path d="M1086.48 1047.02C1077.09 1039.62 1073.73 1026.56 1066.83 1017.15C1061.4 1009.74 1054.67 1003.62 1049 996.367C1045.57 991.987 1039.06 983.596 1032.76 983.16" stroke="black" stroke-width="3" stroke-linecap="round"/>
<path d="M993.742 1025.57C991.093 1025.12 981.122 1019.7 980.258 1017.62" stroke="black" stroke-width="3" stroke-linecap="round"/>
<path d="M983.523 1042.91C986 1050.74 991.63 1061.21 1002.47 1061.96" stroke="black" stroke-width="3" stroke-linecap="round"/>
<path d="M1005.43 1059.53C1002.75 1066.52 1002.67 1072.35 1010.31 1075.83" stroke="black" stroke-width="3" stroke-linecap="round"/>
<path d="M1174.12 924.769C1177.46 925 1167.74 922.771 1164.52 921.878C1156.99 919.791 1149.21 918.035 1141.38 917.494C1124.88 916.354 1106.67 921.891 1090.86 926.477C1086.44 927.761 1082.66 930.519 1079.86 934.237C1078.02 936.678 1077.16 940.555 1074.62 942.34C1070.32 945.364 1063.39 953.202 1057.91 952.824C1041.19 951.668 1026.57 963.598 1014.36 973.871L1011.67 981.024" stroke="black" stroke-width="3" stroke-linecap="round"/>
<path d="M1083.84 983.685C1093.87 993.921 1101.11 1004.98 1101.32 1020.03C1101.41 1025.76 1101.61 1031.27 1101.21 1037.01C1101.1 1038.55 1099.62 1045.97 1100.76 1046.78M1100.76 1046.78C1102.54 1048.06 1109.79 1046.67 1112.01 1046.78C1117.42 1047.05 1122.8 1046.52 1128.2 1046.89C1137.94 1047.57 1147.71 1047.89 1157.46 1047.41C1165.85 1047 1173.77 1047.39 1182.03 1045.6C1188.93 1044.11 1194.9 1041.36 1201.15 1038.12C1226.18 1025.16 1228.17 996.114 1234.24 971.804C1235.94 965.019 1236.12 958.94 1234.25 952.425C1233.51 949.866 1230.87 946.898 1228.83 945.368C1226.85 943.883 1225.59 935.762 1225.64 933.564C1225.79 927.053 1224.15 920.959 1222.93 914.666C1221.9 909.36 1220.21 903.68 1218.02 898.734C1215.4 892.805 1209.31 890.882 1205.29 886.271C1195.37 874.878 1197.93 861.199 1193.97 847.899C1190.21 835.31 1182.44 825.223 1176.58 813.451C1171.8 803.841 1166.06 792.682 1158.63 784.756C1153.89 779.703 1149.17 774.23 1143.11 770.709C1138.95 768.29 1134.17 767.08 1129.8 765.111C1121.78 761.493 1113.64 756.152 1105.25 753.669C1100.4 752.234 1095.09 748.901 1090.07 748.555M1100.76 1046.78L1090.83 1050.76" stroke="black" stroke-width="3" stroke-linecap="round"/>
<path d="M1014.3 858.592C1014.48 861.783 1044.26 857.109 1046.56 856.811C1049.8 856.392 1052.42 854.391 1055.69 854.435C1057.84 854.464 1061.19 854.209 1063.22 853.452C1065.26 852.689 1064.86 859.581 1065.16 861.605C1065.92 866.643 1053.3 864.455 1050.18 864.858C1044.04 865.65 1038.28 867.5 1032.57 869.878C1030.04 870.93 1019.74 875.242 1018.17 871.89C1016 867.25 1015.95 863.748 1016.3 858.73" stroke="black" stroke-width="3" stroke-linecap="round"/>
<path d="M1090.58 755.608C1082.67 759.644 1073.56 763.884 1068.23 771.326C1063.35 778.133 1059.61 785.224 1056.43 792.953C1054.03 798.78 1052.13 805.339 1050.59 811.427C1049.47 815.804 1052.04 812.188 1055.73 813.565C1059.66 815.033 1061.53 816.834 1064.09 819.934C1068.99 825.88 1077.6 824.204 1083.89 828.319C1090.08 832.372 1094.76 839.985 1103.15 840.565C1105.55 840.731 1111.69 824.089 1113.29 821.887C1120.07 812.586 1130.01 806.74 1140.48 802.381C1145.18 800.423 1147.65 801.029 1142.74 797.804C1138.79 795.203 1134.18 791.617 1129.81 789.95C1123.76 787.641 1117.71 784.139 1115.35 777.59C1113.82 773.333 1114.88 768.921 1115.03 764.537C1115.2 759.359 1112.27 760.611 1108.73 759.813C1102.2 758.343 1096.35 755.004 1089.66 754.541" stroke="black" stroke-width="3" stroke-linecap="round"/>
<path d="M1070.39 772.254C1070.57 775.418 1088.78 779.09 1092.3 782.4C1093.79 783.807 1095.34 785.776 1097.5 786.156C1098.97 786.414 1103.09 786.914 1101.74 787.563C1092.85 791.86 1089.94 805.161 1087.79 813.775C1086.6 818.531 1083.9 823.369 1083.56 828.295" stroke="black" stroke-width="3" stroke-linecap="round"/>
<path d="M1139.98 795.106C1128.46 799.901 1117.5 804.357 1110.33 814.775C1104.9 822.672 1100.42 830.782 1099.76 840.44" stroke="black" stroke-width="3" stroke-linecap="round"/>
<path d="M1128.03 790.271C1125.92 791.914 1123.14 792.853 1120.88 794.343C1118.48 795.919 1116.75 798.136 1114.58 799.978C1112.52 801.729 1110.38 803.292 1108.71 805.461C1106.85 807.869 1104.96 810.328 1102.94 812.594C1099.59 816.331 1097.06 820.662 1094.83 825.134C1093.5 827.802 1092.19 830.366 1091.98 833.388" stroke="black" stroke-width="3" stroke-linecap="round"/>
<path d="M1120.93 784.266C1117.87 785.768 1115.57 787.488 1113.15 789.868C1110.41 792.566 1107.61 795.038 1104.61 797.436C1102.67 798.984 1101.1 800.764 1099.6 802.714C1097.87 804.958 1096.65 807.332 1095.11 809.671C1093.55 812.019 1092.38 814.613 1091.04 817.089C1090 819.016 1088.64 820.723 1087.95 822.833C1087.29 824.84 1086.53 826.846 1086.08 828.913C1085.72 830.554 1085.97 830.487 1086.77 829.017" stroke="black" stroke-width="3" stroke-linecap="round"/>
<path d="M1114.82 774.823C1114.33 775.384 1113.37 775.593 1112.71 775.875C1111.52 776.392 1110.36 777.002 1109.22 777.638C1107.49 778.608 1105.53 779.846 1104.34 781.477C1102.79 783.599 1101.71 786.03 1100.12 788.091" stroke="black" stroke-width="3" stroke-linecap="round"/>
<path d="M1114.15 762.749C1111.05 764.943 1107.39 766.321 1104.77 769.145C1102.61 771.463 1101.23 774.172 1099.36 776.665C1098.07 778.398 1096.33 779.896 1095.41 781.877C1095.25 782.231 1094.69 783.302 1094.69 783.206" stroke="black" stroke-width="3" stroke-linecap="round"/>
<path d="M1108.28 760.588C1104.44 761.764 1100.44 763.124 1097.14 765.526C1094.97 767.108 1093.19 769.279 1091.16 771.043C1089.17 772.778 1085.73 775.106 1085.53 778.06" stroke="black" stroke-width="3" stroke-linecap="round"/>
<path d="M1098.27 756.887C1094.52 757.816 1090.09 758.568 1086.78 760.66C1083.91 762.479 1081.31 765.13 1079.22 767.794C1078.28 768.993 1077.5 770.61 1076.87 772.003C1076.5 772.822 1075.82 773.494 1075.76 774.377" stroke="black" stroke-width="3" stroke-linecap="round"/>
<path d="M1057.59 808.709C1057.57 805.86 1055.66 810.119 1057.65 807.961" stroke="black" stroke-width="3" stroke-linecap="round"/>
<path d="M1060.61 801.401C1060.33 801.944 1060.41 803.186 1061.02 802.153C1061.46 801.396 1060.98 801.125 1060.36 801.383" stroke="black" stroke-width="3" stroke-linecap="round"/>
<path d="M1063.6 794.342C1062.8 795.553 1064.85 793.983 1065.05 793.496C1065.13 793.29 1064.62 793.661 1064.4 793.645" stroke="black" stroke-width="3" stroke-linecap="round"/>
<path d="M1066.27 810.061C1065.99 810.568 1065.98 811.102 1066.59 810.432C1067.03 809.955 1066.56 809.443 1066.52 810.079" stroke="black" stroke-width="3" stroke-linecap="round"/>
<path d="M1068.29 802.683C1067.58 804.119 1069.3 802.473 1068.51 802.309C1068.18 802.241 1067.31 802.276 1067.31 802.365" stroke="black" stroke-width="3" stroke-linecap="round"/>
<path d="M1074.69 807.885C1075.25 807.844 1074.05 807.709 1074.47 807.952C1074.72 808.101 1074.48 807.619 1074.71 807.635" stroke="black" stroke-width="3" stroke-linecap="round"/>
<path d="M1073.15 815.799C1072.92 815.994 1072.98 815.787 1073.15 815.799" stroke="black" stroke-width="3" stroke-linecap="round"/>
<path d="M1086.26 785.628C1086.12 785.75 1086.31 786.049 1086.47 786.144" stroke="black" stroke-width="3" stroke-linecap="round"/>
<path d="M1090.38 787.668C1090.55 787.705 1090.68 788.913 1091.09 788.218" stroke="black" stroke-width="3" stroke-linecap="round"/>
<path d="M1085.47 793.343C1085.5 793.871 1086.28 793.264 1086.49 793.163" stroke="black" stroke-width="3" stroke-linecap="round"/>
<path d="M876.987 785.894C879.041 789.253 882.641 813.249 882.641 813.249C882.641 813.249 970.577 823.19 1005.01 817.382C1005.01 817.382 1008.82 799.57 1009.24 797.196C1009.62 795.051 1011 783.252 1013.04 782.325" stroke="black" stroke-width="3" stroke-linecap="round"/>
<path d="M924.902 861.301C924.195 871.524 924.485 881.841 923.775 892.113C923.294 899.076 922.834 907.245 924.032 914.18C924.562 917.249 926.534 915.655 929.712 914.989C935.289 913.819 941.856 914.352 947.572 914.403C949.477 914.42 952.797 915.346 954.674 914.79C954.75 914.767 954.921 905.564 954.994 904.515C955.572 896.155 956.999 887.478 955.967 879.153C955.641 876.52 957.491 861.98 955.46 860.708C953.887 859.724 949.655 860.203 947.819 860.076C944.051 859.816 940.581 858.763 936.909 858.386C932.866 857.971 929.177 858.788 925.095 858.506" stroke="black" stroke-width="3" stroke-linecap="round"/>
<path d="M890.015 843.986C888.005 844.718 883.968 843.73 882.481 845.025C880.16 847.046 881.67 854.092 880.877 856.943C879.409 862.221 878.511 863.544 872.72 863.786C867.24 864.014 867.962 873.001 867.618 877.968C867.35 881.856 874.932 879.421 876.13 882.12C877.048 884.186 876.716 897.149 874.236 898.25C872.292 899.113 870.692 898.293 868.747 898.706C867.113 899.053 867.507 908.589 867.419 909.863C867.247 912.35 866.978 914.854 866.902 917.345C866.819 920.059 874.166 918.871 875.85 918.409C878.727 917.62 878.29 929.381 875.606 929.196C870.868 928.868 872.988 938.018 873.265 940.506C873.81 945.402 871.214 946.935 877.413 947.364C882.672 947.727 876.988 955.178 880.297 955.582C889.171 956.666 898.752 956.982 907.614 955.966C908.664 955.846 912.317 954.828 912.29 956.791C912.234 960.962 912.416 960.809 917.058 961.13C925.892 961.74 937.081 963.034 945.834 961.336C946.832 961.143 950.639 962.031 951.042 960.917C951.533 959.562 951.161 954.957 953.146 954.658C959.582 953.687 962.156 957.466 966.299 961.748C969.698 965.261 976.507 971.983 981.671 971.387C990.091 970.415 998.781 971.665 1007.08 970.414C1013.12 969.502 1011.05 954.41 1012.26 949.443C1014.46 940.343 1014.35 930.465 1014.99 921.12C1015.74 910.369 1017.54 899.133 1016.76 888.386C1016.26 881.543 1016.23 874.594 1015.9 867.722C1015.63 862.152 1016.99 855.681 1015.83 850.231C1015.22 847.371 996.247 847.436 992.994 847.038C984.364 845.984 975.871 844.908 967.176 844.307C963.23 844.034 960.089 845.273 958.075 848.69C955.067 853.792 953.577 852.389 947.157 851.945C938.876 851.373 929.649 852.849 921.598 851.125C918.246 850.408 919.412 842.138 917.226 841.857C907.739 840.639 898.635 841.575 889.224 840.925" stroke="black" stroke-width="3" stroke-linecap="round"/>
<path d="M893.922 830.977C894.453 834.414 894.948 837.879 894.712 841.306" stroke="black" stroke-width="3" stroke-linecap="round"/>
<path d="M893.473 830.197C901.926 830.346 910.353 830.273 918.803 830.305C919.913 830.309 922.016 829.971 923.006 830.734" stroke="black" stroke-width="3" stroke-linecap="round"/>
<path d="M919.216 831.219C918.975 834.213 918.553 837.188 918.596 840.198" stroke="black" stroke-width="3" stroke-linecap="round"/>
<path d="M978.073 835.287C974.298 837.036 971.698 841.257 970.383 845.03" stroke="#00192F" stroke-width="3" stroke-linecap="round"/>
<path d="M976.277 835.917C979.815 836.063 983.356 836.141 986.897 836.15C988.59 836.154 990.475 836.418 992.161 836.138C992.709 836.046 992.932 836.012 993.353 836.415C994.899 837.895 996.34 839.498 997.987 840.87C999.44 842.08 1001.15 844.034 1001.65 845.94" stroke="#00192F" stroke-width="3" stroke-linecap="round"/>
<path d="M878.231 952.811C877.793 955.333 870.792 970.474 872.701 971.707C876.486 974.151 880.053 977.719 884.5 979C889.968 980.574 897.543 974.818 902.362 971.921C905.333 970.134 907.424 967.293 910.613 965.606C913.072 964.305 915.466 962.817 917.582 961.038" stroke="#00192F" stroke-width="3" stroke-linecap="round"/>
<path d="M874.895 961.227C880.716 961.938 887.958 962.985 892.798 966.473C894.751 967.882 899.397 970.041 900.212 971.998" stroke="black" stroke-width="3" stroke-linecap="round"/>
<path d="M871.145 971.993C851.755 983.914 841.488 1000.94 835.789 1022.68C831.554 1038.83 830.203 1055.03 826.964 1071.41C825.558 1078.51 823.653 1086.42 820.68 1093.02C817.986 1099.01 817.359 1106.3 814.359 1111.97C813.317 1113.93 806.321 1126.74 806.656 1121.9" stroke="black" stroke-width="3" stroke-linecap="round"/>
<path d="M884.56 980.939C878.151 987.079 874.328 996.329 869.025 1003.48C863.874 1010.42 860.831 1019.16 857.323 1026.95C853.145 1036.23 851.378 1046.76 849.254 1056.68C847.191 1066.32 843.526 1075.09 840.325 1084.36C835.156 1099.32 833.878 1119.73 823.217 1132.07C817.999 1138.11 811.083 1147.27 802.438 1146.67C787.585 1145.64 788.485 1138.26 789.49 1123.72C790.66 1106.79 811.81 1068.61 828.07 1061.84" stroke="#00192F" stroke-width="3" stroke-linecap="round"/>
<path d="M882.455 1025.9C869.465 1025 851.131 1052.81 871.477 1054.21C876.233 1054.54 879.813 1048.92 883.278 1046.23C885.844 1044.24 898.335 1047.77 899.154 1044.54C901.437 1035.56 891.438 1027.52 883.384 1026.97" stroke="black" stroke-width="3" stroke-linecap="round"/>
<path d="M872.582 1027.88C874.85 1015.4 887.865 1002.2 900.71 1006.89C907.209 1009.26 911.951 1014.56 914.941 1019.9C918.301 1025.91 916.48 1036.61 914.321 1042.58C912.809 1046.76 902.651 1046.34 899.098 1046.09" stroke="black" stroke-width="3" stroke-linecap="round"/>
<path d="M877.53 1053.63C877.156 1059.04 877.822 1066.39 873.314 1070.32C869.125 1073.97 862.703 1076.23 857.949 1079.11C850.902 1083.39 834.918 1097.36 834.237 1107.21" stroke="black" stroke-width="3" stroke-linecap="round"/>
<path d="M863.046 1045.61C858.016 1049.49 855.215 1048.16 850.085 1052.63" stroke="black" stroke-width="3" stroke-linecap="round"/>
<path d="M1209.59 919.202C1195.51 918.228 1176.86 914.422 1163.42 920.021" stroke="black" stroke-width="3" stroke-linecap="round"/>
<path d="M1201.78 901.62C1192.78 902.489 1183.02 900.621 1174.17 902.274C1169.41 903.162 1164.84 905.325 1160.31 906.996C1155.55 908.756 1148.42 910.253 1145.74 914.788" stroke="black" stroke-width="3" stroke-linecap="round"/>
<path d="M1195.62 947.305C1203.65 952.659 1212.69 959.922 1216.38 969.122C1220.38 979.08 1220.02 989.737 1221.03 1000.18" stroke="black" stroke-width="3" stroke-linecap="round"/>
<path d="M1162.01 955.004C1179.76 973.078 1189.4 998.16 1190.14 1023.33C1190.3 1028.58 1190.21 1034.8 1188.45 1039.81C1187.94 1041.25 1187.12 1044.6 1189.07 1042.08" stroke="black" stroke-width="3" stroke-linecap="round"/>
<path d="M1139.3 964.464C1135.12 964.592 1132.06 964.721 1127.77 963.667C1118.74 961.446 1108.84 962.886 1100.08 959.86C1095.98 958.444 1082.35 953.356 1080.27 948.355" stroke="black" stroke-width="3" stroke-linecap="round"/>
<path d="M1102.82 839.651C1102.35 846.439 1099.8 853.302 1098.41 859.95C1096.31 869.98 1092.33 878.656 1086.89 887.277C1078.93 899.888 1072.5 910.773 1069.82 925.58" stroke="black" stroke-width="3" stroke-linecap="round"/>
<path d="M1043.4 872.633C1043.54 882.631 1045.84 895.27 1050.47 904.195C1053.65 910.354 1055.39 919.642 1062.01 922.534C1070.05 926.049 1070.58 934.229 1076.9 939.1" stroke="black" stroke-width="3" stroke-linecap="round"/>
<path d="M1052.46 785.047C1050.7 810.638 1029.33 829.716 1027.62 854.499" stroke="black" stroke-width="3" stroke-linecap="round"/>
<path d="M821.226 766.061C817.998 767.752 812.689 767.212 809.082 767.728C800.779 768.916 792.997 771.541 785.358 774.998C777.553 778.53 770.954 785.361 765.38 791.716C760.443 797.344 753.882 800.717 747.566 804.519C740.207 808.947 735.25 818.087 732.875 826.113C729.537 837.396 723.714 847.197 721.369 858.842C718.714 872.029 706.96 882 705.963 896.424C705.431 904.125 704.361 911.724 703.321 919.352C702.425 925.922 700.032 932.281 699.02 938.88C698.294 943.612 697.774 948.743 696.516 953.353C691.182 972.901 690.543 993.628 685.86 1013.26C684.364 1019.53 681.414 1026.01 678.782 1031.87C678.387 1032.75 679.307 1036.09 679.42 1037.15C679.849 1041.15 679.71 1044.28 678.662 1048.13C676.294 1056.8 674.482 1064.17 673.7 1073.18C672.823 1083.29 668.848 1093.17 668.609 1103.34C668.506 1107.67 669.183 1113.4 669.671 1117.78C669.773 1118.7 690.147 1117.83 692.15 1118.06C705.017 1119.5 717.439 1121.75 730.159 1124.08C741.064 1126.08 752.485 1128.43 762.03 1134.3C763.67 1135.31 767.28 1137.88 768.864 1135.33C771.779 1130.64 774.434 1125.21 777.252 1120.32C782.123 1111.86 781.923 1100.56 783.938 1091.26C785.564 1083.76 787.467 1076.63 789.254 1069.13C791.044 1061.63 792.477 1053.99 793.833 1046.4C794.921 1040.3 798.132 1035.12 800.027 1029.28C802.952 1020.28 808.706 1013.43 812.725 1005.1C820.012 989.994 834.773 978.958 837.727 961.609C838.816 955.217 839.202 947.194 845.296 943.142C848.302 941.144 847.498 936.969 850.683 934.493C853.319 932.444 857.333 933.39 859.938 931.123C861.581 929.692 862.259 927.899 864.257 926.632C865.785 925.664 867.579 926.085 868.401 924.691" stroke="black" stroke-width="3" stroke-linecap="round"/>
<path d="M862.637 805.009C858.035 812.018 853.785 819.263 849.141 826.24C848.329 827.459 843.267 832.37 843.8 834.224C844.979 838.327 853.72 838.769 854.96 843.571" stroke="black" stroke-width="3" stroke-linecap="round"/>
<path d="M1024.73 809.195C1027.28 812.327 1033.8 818.356 1032.64 822.94C1030.5 831.341 1027.37 839.333 1024.11 847.243" stroke="black" stroke-width="3" stroke-linecap="round"/>
<path d="M853.674 934.699C853.811 913.937 846.34 894.738 838.924 875.764C834.217 863.718 830.428 852.489 823.638 841.517C816.324 829.7 805.91 818.213 795.176 809.367" stroke="black" stroke-width="3" stroke-linecap="round"/>
<path d="M838.726 960.926C835.219 949.749 835.458 937.439 833.29 925.968C828.321 899.682 820.54 871.317 806.357 848.315C802.232 841.625 795.464 836.335 789.551 831.227" stroke="black" stroke-width="3" stroke-linecap="round"/>
<path d="M803.505 1022.45C800.241 1013.86 788.929 1009.7 781.307 1006.82C765.726 1000.95 751.072 994.415 735.033 989.871C727.188 987.649 717.955 985.461 709.871 984.902" stroke="black" stroke-width="3" stroke-linecap="round"/>
<path d="M797.381 1024.03C778.695 1014.41 757.144 1009.18 736.674 1004.8C732.667 1003.94 728.74 1003.25 724.66 1002.96" stroke="black" stroke-width="3" stroke-linecap="round"/>
<path d="M678.075 1038.84C699.367 1037.86 719.954 1029.56 741.558 1030.81C749.499 1031.27 756.9 1033.76 764.73 1034.75C766.54 1034.98 768.766 1034.42 769.479 1036.13" stroke="black" stroke-width="3" stroke-linecap="round"/>
<path d="M723.966 1042.01C742.117 1041.35 763.525 1040.8 780.983 1046.95C783.96 1048 786.456 1049.34 789.602 1049.55" stroke="black" stroke-width="3" stroke-linecap="round"/>
<path d="M829.964 980.421C825.753 943.124 812.769 909.747 791.277 880.266" stroke="black" stroke-width="3" stroke-linecap="round"/>
<path d="M1120.98 866.967C1132.1 863.551 1138.33 844.743 1151.3 847.233C1153.63 847.68 1178.29 849.983 1178.36 848.88" stroke="black" stroke-width="3" stroke-linecap="round"/>
<path d="M1137.22 864.08C1141.64 857.886 1151.71 856.06 1158.79 856.549" stroke="black" stroke-width="3" stroke-linecap="round"/>
<path d="M1182.8 886.274C1170.03 886.243 1156.01 884.376 1143.6 887.797C1134.52 890.3 1127.09 895.667 1120.5 902.127C1116.32 906.222 1112.16 910.495 1108.16 914.751C1106.59 916.417 1103.37 918.684 1103.22 920.87" stroke="black" stroke-width="3" stroke-linecap="round"/>
<path d="M778.273 1111.92C779.98 1114.35 779.823 1115.89 780.756 1118.55C781.88 1121.76 788.229 1120.63 790.691 1120.8" stroke="black" stroke-width="3" stroke-linecap="round"/>
<path d="M756.874 1131.49C760.982 1134.83 763.461 1139.06 766.883 1142.99C767.976 1144.24 769.832 1145.22 770.636 1146.7C772.007 1149.22 762.806 1163.72 759.958 1165.84C753.409 1170.72 753.662 1177.98 753.163 1185.2C753.032 1187.08 752.108 1194.52 750.466 1195.2" stroke="black" stroke-width="3" stroke-linecap="round"/>
<path d="M669.638 1117.45C661.286 1122.5 657.406 1127.61 658.2 1137.09C658.722 1143.31 656.76 1147.22 656.128 1153.38C655.756 1157 658.416 1158.87 658.484 1162.01C658.606 1167.65 656.783 1173.59 657.407 1179.19C657.641 1181.29 657.705 1184.74 658.394 1186.67C659.205 1188.94 658.111 1192.41 659.041 1194.23C660.84 1197.76 668.768 1195.12 671.366 1193.97C672.891 1193.3 673.527 1191.62 675.024 1190.99C686.925 1186.04 700.495 1188.2 712.96 1187.6C719.835 1187.27 729.453 1183.92 735.972 1187.41C738.486 1188.76 739.554 1191.27 742.695 1191.66C745.727 1192.04 748.531 1193.07 751.605 1193.28" stroke="black" stroke-width="3" stroke-linecap="round"/>
<path d="M669.386 1193.61C669.311 1194.7 668.193 1200.29 669.683 1200.59C678.875 1202.47 689.141 1199.08 698.427 1198.85C707.572 1198.61 720.342 1198.2 729.021 1200.96C732.886 1202.19 737.807 1203.24 741.12 1205.58C742.049 1206.24 745.094 1209.38 746.526 1208.74C749.955 1207.22 749.321 1197.31 749.54 1194.14" stroke="#00192F" stroke-width="3" stroke-linecap="round"/>
<path d="M669.553 1205.65C657.541 1210.65 657.613 1220.36 654.959 1231.48C653.828 1236.22 656.17 1236.67 660.375 1238.54C668.828 1242.3 676.959 1245.6 685.903 1247.88C699.178 1251.26 712.405 1253.72 726.086 1254.66C728.86 1254.86 732.992 1255.67 734.885 1253.04C737.745 1249.08 740.218 1241.96 740.56 1237.01C740.748 1234.28 744.961 1220.14 742.216 1218.69C735.061 1214.9 726.196 1213.67 718.635 1210.99C703.502 1205.62 685.81 1201.76 669.898 1200.66" stroke="black" stroke-width="3" stroke-linecap="round"/>
<path d="M750.121 1200.19C759.898 1201.97 753.574 1222.74 753.217 1227.91C752.619 1236.57 750.299 1244.64 751.677 1253.42C752.977 1261.71 754.346 1269.59 753.764 1278.02C753.575 1280.76 754.918 1291.64 751.209 1292.43C747.127 1293.3 745.586 1296.41 740.51 1295.75C737.177 1295.33 733.523 1289.99 733.166 1286.78C732.024 1276.52 727.437 1267.35 728.165 1256.81" stroke="#00192F" stroke-width="3" stroke-linecap="round"/>
<path d="M727.528 1258.77C726.766 1261.4 725.419 1263.83 724.684 1266.48C724.194 1268.25 723.943 1270.06 723.616 1271.87C722.879 1275.92 722.618 1280.03 722.157 1284.11C721.785 1287.41 721.487 1291.09 721.752 1294.4C721.86 1295.76 722.362 1297.09 722.93 1298.31C723.607 1299.77 723.878 1300.7 723.767 1302.31C723.718 1303.02 723.877 1304.18 723.43 1304.78C721.736 1307.04 720.191 1307.94 717.499 1308C715.362 1308.05 713.274 1307.91 711.139 1307.76C709.992 1307.68 707.467 1308.02 706.91 1306.91C706.676 1306.44 706.716 1305.91 706.511 1305.43C706.077 1304.42 705.298 1303.58 704.83 1302.56C703.908 1300.56 702.639 1298.75 701.794 1296.73C699.825 1292 698.017 1286.9 697.566 1281.76C697.207 1277.68 697.92 1273.82 698.199 1269.78" stroke="black" stroke-width="3" stroke-linecap="round"/>
<path d="M677.434 1269.34C677.306 1274.36 677.373 1279.63 678.514 1284.54C678.862 1286.03 679.303 1287.52 679.44 1289.06C679.56 1290.4 679.401 1291.69 679.865 1292.98C680.893 1295.86 682.704 1298.9 684.272 1301.53C685.589 1303.74 687.286 1306.34 689.177 1308.12C690.717 1309.57 692.365 1309.47 694.448 1309.61C696.642 1309.76 698.771 1309.92 700.963 1309.81C702.543 1309.74 704.555 1309.73 705.968 1308.91C706.311 1308.71 707.343 1307.25 707.142 1307.23" stroke="black" stroke-width="3" stroke-linecap="round"/>
<path d="M658.645 1240.23C659.244 1240.35 657.746 1250.05 657.301 1251.61C656.582 1254.12 655.19 1256.68 655.374 1259.35C655.625 1263.02 656.018 1266.74 656.407 1270.4C656.65 1272.69 656.567 1275.28 657.607 1277.4C658.733 1279.69 660.132 1281.81 661.236 1284.11C662.268 1286.26 663.343 1288.06 665.127 1289.65C665.504 1289.99 667.82 1290.84 667.934 1290.74" stroke="black" stroke-width="3" stroke-linecap="round"/>
<path d="M664.73 1268.21C664.744 1274.28 665.621 1280.14 667.32 1285.94C668.121 1288.66 668.304 1291.45 669.204 1294.14C669.953 1296.38 671.336 1298.31 673.094 1299.89C675.503 1302.07 678.325 1303.45 681.023 1305.23C685.141 1307.95 688.436 1306.91 693.226 1305.52" stroke="black" stroke-width="3" stroke-linecap="round"/>
<path d="M698.441 1273.55C700.882 1274.99 703.426 1276.22 706.261 1276.64C709.09 1277.06 711.582 1276.44 714.317 1275.9" stroke="black" stroke-width="3" stroke-linecap="round"/>
<path d="M703.702 1298.98C704.098 1298.63 705.16 1299.07 705.554 1299.16C707.427 1299.6 709.304 1299.98 711.219 1300.19C713.348 1300.43 715.346 1299.99 717.436 1299.67" stroke="black" stroke-width="3" stroke-linecap="round"/>
<path d="M730.477 1277.77C733.91 1278.41 737.397 1279.5 740.88 1279.74C742.958 1279.89 743.794 1279.96 745.636 1278.82C748 1277.35 749.636 1275.64 751.556 1273.73C752.187 1273.1 752.648 1272.43 752.71 1271.54" stroke="black" stroke-width="3" stroke-linecap="round"/>
<path d="M750.466 1249.58C747.416 1254.48 743.196 1259.25 737.411 1260.61C734.667 1261.26 731.622 1263.07 728.749 1262.87" stroke="black" stroke-width="3" stroke-linecap="round"/>
<path d="M682.801 1188.02C683.1 1191.71 682.796 1195.35 682.541 1199.03" stroke="black" stroke-width="3" stroke-linecap="round"/>
<path d="M734.883 1188.61C735.327 1193.95 735.646 1199.32 735.276 1204.68" stroke="#00192F" stroke-width="3" stroke-linecap="round"/>
<path d="M735.898 1086.94C734.007 1096.6 731.052 1106.3 730.372 1116.13" stroke="black" stroke-width="3" stroke-linecap="round"/>
<path d="M735.366 1087.41C730.815 1087.09 726.489 1089.27 722.566 1091.31C718.217 1093.57 718.414 1098.9 718.247 1103.04C718.124 1106.09 720.618 1111.47 722.754 1113.57C724.179 1114.97 726.418 1115.86 728.378 1115.99" stroke="black" stroke-width="3" stroke-linecap="round"/>
<path d="M726.56 1055.22C733.721 1055.55 740.894 1055.64 748.036 1056.32C753.415 1056.82 759.29 1056.89 764.475 1058.56C765.792 1058.99 781.861 1064.79 780.05 1066.88C779.514 1067.5 774.622 1066.56 773.922 1066.51C770.5 1066.28 767.159 1065.72 763.759 1065.31C757.514 1064.55 751.304 1063.95 745.032 1063.51" stroke="black" stroke-width="3" stroke-linecap="round"/>
<path d="M718.339 1072.7C711.095 1072.39 703.734 1071.82 696.489 1072.19C691.601 1072.44 686.488 1072.36 681.872 1074.19C679.439 1075.15 676.866 1076.23 674.62 1077.58C672.825 1078.67 672.196 1078.61 674.855 1078.21" stroke="black" stroke-width="3" stroke-linecap="round"/>
<path d="M1126.59 1046.78C1131.36 1048.75 1131.57 1061.82 1131.28 1065.93C1130.88 1071.81 1129.18 1078.11 1127.27 1083.7C1124.25 1092.54 1124.96 1102.92 1124.08 1112.21C1121.87 1135.3 1120.03 1157.11 1123.62 1180.12C1124.74 1187.33 1128.44 1194.53 1131.99 1200.74C1137.38 1210.18 1140.05 1220.68 1142.7 1231.11C1147.32 1249.26 1153.58 1267.79 1155.13 1286.54C1155.76 1294.17 1155.8 1302.41 1155.51 1310.07C1155.27 1316.46 1157.12 1322.68 1157.15 1329.06C1157.18 1335.09 1157.04 1341.07 1157.02 1347.1C1156.99 1353.54 1155.76 1361.38 1157.04 1367.65C1158.51 1374.83 1160.8 1381.64 1161.52 1389.12C1162.11 1395.24 1160.63 1401.76 1160.82 1408.06C1161 1413.89 1163.21 1419.37 1163.67 1424.85C1164.15 1430.58 1164.07 1437.81 1166.92 1443.06C1169.6 1447.99 1171.67 1453.48 1172.79 1458.95C1174.52 1467.42 1175.94 1475.94 1177.99 1484.37C1178.83 1487.83 1178.03 1491.8 1177.79 1495.33C1177.46 1500.11 1178.13 1504.99 1177.79 1509.86C1177.09 1519.91 1168.45 1531.99 1159.64 1537.23C1155.94 1539.43 1151.93 1539.89 1147.98 1541.44C1143.97 1543.01 1140.48 1545.31 1136.38 1546.65C1123.32 1550.9 1111.4 1550.94 1097.83 1550C1084.87 1549.1 1073.8 1545.39 1061.54 1541.7C1055.39 1539.85 1052.61 1534.85 1049.34 1529.61C1044.76 1522.24 1040.74 1511.47 1040.95 1502.74C1041.1 1496.71 1038.76 1490.94 1039.19 1484.8C1039.33 1482.7 1035.77 1475.79 1034.34 1474.39C1031.7 1471.79 1029.02 1463.23 1028.95 1459.65C1028.85 1454.14 1029.37 1449.35 1031.06 1443.64C1031.95 1440.64 1031.08 1435.98 1030.71 1432.65C1030.53 1431.03 1030.3 1429.18 1030.06 1427.53C1029.85 1426.19 1030.16 1422.46 1029.33 1423.53C1028.1 1425.13 1031.22 1422.21 1030.93 1422.19C1030.05 1422.13 1028.29 1422.9 1026.93 1422.81C1019.3 1422.28 1019.44 1417.61 1017.76 1410.48C1014.46 1396.52 1010.46 1383.47 1005.01 1370.17C996.002 1348.21 990.887 1324.52 984.687 1301.61C983.587 1297.54 981.259 1293.2 981.554 1288.92C981.873 1284.31 983.182 1279.87 983.502 1275.24C983.722 1272.06 983.941 1268.88 984.161 1265.71C984.425 1261.89 985.367 1261.46 982.013 1261.33C973.58 1260.99 958.45 1265.92 951.767 1259.01C948.686 1255.83 951.91 1267.53 951.839 1269.26C951.7 1272.63 952.905 1274.64 953.473 1277.84C954.093 1281.33 953.154 1284.82 953.759 1288.22C954.89 1294.58 944.688 1302.29 941.761 1307.1C938.435 1312.57 934.833 1317.86 932.043 1323.64C929.049 1329.85 928.49 1336.3 926.165 1342.61C920.899 1356.92 917.542 1373.91 916.492 1389.11C916.227 1392.94 915.727 1396.86 915.746 1400.7C915.764 1404.31 917.196 1407.93 916.955 1411.42C916.352 1420.14 912.792 1428.14 912.177 1437.04C911.602 1445.35 909.442 1453.64 906.973 1461.57C904.847 1468.41 904.179 1475.35 901.602 1482.09C899.529 1487.5 895.318 1492.43 894.906 1498.38C893.714 1515.64 884.285 1533.45 870.292 1543.52C859.798 1551.07 850.474 1557.96 837.058 1557.04C823.423 1556.09 809.442 1555.09 796.252 1551.21C782.182 1547.07 776.726 1531.41 769.668 1520.08C761.799 1507.45 751.823 1490.73 753.621 1475.09C754.054 1471.32 758.579 1466.84 760.006 1463.28C761.858 1458.66 764.639 1454.7 766.165 1449.89C769.124 1440.58 770.376 1429.25 771.051 1419.49C771.901 1407.19 768.645 1390.65 774.829 1379.32C775.744 1377.65 780.258 1372.77 779.203 1370.83C776.522 1365.89 778.032 1357.68 780.183 1352.63C784.158 1343.29 786.013 1337.22 781.883 1328.02C779.107 1321.84 777.204 1315.95 777.668 1309.24C778.019 1304.17 778.888 1298.86 778.234 1293.8C777.499 1288.1 778.238 1281.58 779.024 1275.92C779.725 1270.87 783.396 1267.24 785.338 1262.71C787.908 1256.73 788.959 1247.39 789.405 1240.94C790.242 1228.83 795.055 1217.2 795.9 1204.97C796.44 1197.16 796.669 1189.26 797.58 1181.48C798.079 1177.21 801.049 1170.16 799.096 1165.99C796.14 1159.68 802.819 1149.92 800.148 1143.51" stroke="black" stroke-width="3" stroke-linecap="round"/>
<path d="M924.375 1130.04C919.03 1134.69 910.731 1138.91 910.196 1146.65C908.902 1165.38 911.733 1185.43 918.318 1203.18C920.256 1208.41 921.355 1213.76 922.784 1219.14C924.744 1226.52 928.937 1232.93 932.276 1239.73C936.949 1249.24 939.893 1258.4 950.657 1261.9" stroke="black" stroke-width="3" stroke-linecap="round"/>
<path d="M929.57 1127.39C942.651 1129.4 955.153 1132.09 968.596 1131.59C974.806 1131.36 978.292 1130.37 983.463 1133.23C988.224 1135.87 992.017 1139.65 996.633 1142.49C998.253 1143.49 1001.38 1146.88 1002.92 1147.44C1007.82 1149.21 1004.1 1169.59 1003.47 1174.15C1001.19 1190.56 1000.25 1206.94 996.138 1222.99C993.519 1233.21 991.077 1243.11 987.816 1253.15C987.433 1254.33 984.748 1261.51 985.453 1261.56" stroke="black" stroke-width="3" stroke-linecap="round"/>
<path d="M927.13 1227.96C925.466 1226.35 923.296 1225.1 921.277 1224.02C910.931 1218.49 899.828 1214.28 888.881 1210.12C878.021 1205.99 866.539 1202.78 856.145 1197.5C841.307 1189.95 825.672 1187.37 809.227 1186.23" stroke="black" stroke-width="3" stroke-linecap="round"/>
<path d="M994.711 1229.12C1016.1 1215.19 1041.28 1207.5 1061.05 1191.05C1068.22 1185.08 1074.88 1180 1083.97 1177.65" stroke="black" stroke-width="3" stroke-linecap="round"/>
<path d="M989.509 1275.38C1014.88 1277.13 1041.56 1278.62 1066.66 1273.47C1078.84 1270.97 1089.22 1267.07 1099.44 1260.09C1103.35 1257.41 1106.53 1253.7 1110.47 1251.16" stroke="black" stroke-width="3" stroke-linecap="round"/>
<path d="M1050.24 1303.13C1060.94 1302.29 1071.34 1298.69 1081.78 1296.39C1085.94 1295.48 1090.13 1294.67 1094.32 1293.86C1095.13 1293.71 1095.2 1293.79 1095.53 1293.22" stroke="black" stroke-width="3" stroke-linecap="round"/>
<path d="M1033.35 1424.25C1040.71 1425.1 1047.92 1427.17 1055.27 1428.19C1073.01 1430.63 1091.83 1428.43 1108.88 1423.18C1119.24 1419.99 1129.32 1415.31 1138.2 1409.05C1139.62 1408.06 1142.04 1406.75 1142.92 1405.26" stroke="black" stroke-width="3" stroke-linecap="round"/>
<path d="M1051.77 1455.1C1073.38 1460.52 1095.01 1460.42 1116.81 1455.55C1122.61 1454.26 1129.67 1452.71 1134.52 1449.01C1135.09 1448.57 1138.38 1445.54 1138.13 1445.53" stroke="black" stroke-width="3" stroke-linecap="round"/>
<path d="M1135.34 1456.86C1125.96 1464.42 1116.07 1469.56 1103.91 1470.11C1094.09 1470.56 1084.61 1469.39 1074.88 1468.72" stroke="black" stroke-width="3" stroke-linecap="round"/>
<path d="M1067.61 1479.75C1075.41 1481.52 1084.26 1479.92 1091.97 1478.53C1097.39 1477.56 1102.19 1476.38 1107.1 1473.95" stroke="black" stroke-width="3" stroke-linecap="round"/>
<path d="M1114.49 1512.05C1105.75 1513.48 1097.26 1516.36 1088.68 1518.48C1087.56 1518.76 1087.47 1518.87 1088.57 1519.62C1092.11 1522.01 1096.23 1523.1 1100.4 1523.78C1111.97 1525.66 1121.53 1524.18 1132.67 1520.6C1136.36 1519.42 1140.03 1517.98 1143.78 1516.95C1144.67 1516.7 1145.17 1516.75 1145.78 1516.22" stroke="black" stroke-width="3" stroke-linecap="round"/>
<path d="M783.332 1466.61C811.468 1487.61 849.664 1493.77 882.972 1482.52" stroke="black" stroke-width="3" stroke-linecap="round"/>
<path d="M809.852 1489C823.724 1496.92 842.218 1496.01 857.711 1495.92C865.741 1495.88 872.001 1492.51 879.428 1490.3" stroke="black" stroke-width="3" stroke-linecap="round"/>
<path d="M873.268 1521.45C861.724 1532.86 847.719 1545.02 830.298 1543.7C822.597 1543.12 814.908 1541.43 807.336 1539.95" stroke="black" stroke-width="3" stroke-linecap="round"/>
<path d="M776.598 1404.5C782.214 1405.79 787.806 1407.57 793.379 1409.06C801.332 1411.19 809.46 1411.78 817.59 1412.88C826.001 1414.01 834.978 1415.53 843.24 1417.63C853.208 1420.16 863.466 1422.54 873.759 1423.25C880.19 1423.69 887.709 1425.29 894.057 1423.65" stroke="black" stroke-width="3" stroke-linecap="round"/>
<path d="M900.77 1413.58C897.31 1415.03 894.482 1416.06 890.736 1416.15C878.629 1416.45 866.568 1415.4 854.518 1414.43C841.641 1413.38 829.176 1410.42 816.429 1408.37C811.691 1407.61 806.858 1406.09 802.074 1405.76" stroke="black" stroke-width="3" stroke-linecap="round"/>
<path d="M782.59 1361.31C793.342 1366.32 804.551 1369.63 815.783 1373.35C821.35 1375.2 826.618 1377.71 832.381 1378.95C836.787 1379.9 841.246 1380.4 845.736 1380.71C862.008 1381.84 879.172 1384.47 895.422 1382.14" stroke="black" stroke-width="3" stroke-linecap="round"/>
<path d="M915.336 1318.07C909.626 1327.45 901.075 1333.23 890.472 1335.93C869.741 1341.23 846.736 1344.13 825.303 1343.65C817.64 1343.48 809.955 1342.68 802.306 1342.15" stroke="black" stroke-width="3" stroke-linecap="round"/>
<path d="M792.531 1329.73C795.6 1331.21 799.522 1331.5 802.821 1331.99C811.057 1333.23 819.35 1333.82 827.652 1334.39C836.501 1335 845.351 1335.62 854.2 1336.23" stroke="black" stroke-width="3" stroke-linecap="round"/>
<path d="M944.779 1288.76C934.981 1281.2 924.597 1274.55 915.367 1266.27C907.484 1259.2 899.487 1252.71 890.586 1246.96" stroke="black" stroke-width="3" stroke-linecap="round"/>
<path d="M1001.06 1268.02C1016.86 1267.57 1032.37 1267.21 1047.78 1263.17C1054.29 1261.46 1060.21 1258.26 1066.66 1256.33C1071.21 1254.96 1075.22 1253.04 1079.36 1250.74C1080.66 1250.01 1082.11 1249.64 1082.99 1248.5" stroke="black" stroke-width="3" stroke-linecap="round"/>
<path d="M1034.59 1373.88C1046.09 1380.22 1056.78 1386.78 1069.27 1391.32C1087.47 1397.94 1106.37 1401.68 1125.32 1405.33" stroke="black" stroke-width="3" stroke-linecap="round"/>
<path d="M1002.29 1179.53C1009.62 1179.11 1017.16 1175.69 1024.1 1173.57C1036.5 1169.8 1048.46 1164.71 1060.91 1161.14C1073.03 1157.66 1086.27 1157.26 1097.71 1152.04C1105.58 1148.45 1112.24 1140.01 1121.11 1140.63" stroke="black" stroke-width="3" stroke-linecap="round"/>
<path d="M912.821 1183.37C892.036 1175.38 868.611 1171.3 846.638 1168.71C840.026 1167.94 837.307 1161.11 831.039 1160.68" stroke="black" stroke-width="3" stroke-linecap="round"/>
<path d="M820.587 1137.9C822.419 1138.03 831.233 1137.74 831.463 1139.27C832.486 1146.05 831.6 1152.34 830.099 1159C828.722 1165.11 824.626 1164.24 818.905 1163.85C812.105 1163.38 805.558 1163.93 798.773 1163.46" stroke="black" stroke-width="3" stroke-linecap="round"/>
<path d="M836.963 1103.95C839.973 1107.06 843.56 1109.28 846.388 1112.62C849.703 1116.53 850.544 1121.28 853.178 1125.56C858.856 1134.8 867.065 1134.09 876.711 1134.76C881.402 1135.09 877.937 1146.12 877.164 1149.16C875.622 1155.23 874.723 1154.71 868.584 1153.25C861.963 1151.67 855.802 1148.06 850.766 1143.55C848.441 1141.47 843.932 1140.21 842.25 1137.84C838.913 1133.13 838.8 1124.12 831.594 1123.62" stroke="#00192F" stroke-width="3" stroke-linecap="round"/>
<path d="M909.827 1144.7C909.827 1144.7 900.536 1141.38 893.756 1137.94C893.276 1144.89 891.862 1152.5 893.33 1159.41C893.482 1160.13 899.996 1161.03 901.148 1161.51" stroke="black" stroke-width="3" stroke-linecap="round"/>
<path d="M932.768 962.375C934.967 967.122 937.485 970.37 937.102 975.907C936.758 980.888 933.466 980.928 930.729 984.249C928.777 986.619 926.374 987.97 924.029 989.699C922.973 990.479 920.162 985.204 919.039 983.968C915.311 979.866 901.924 972.139 900.8 982.707C900.53 985.237 896.393 978.989 895.873 977.741" stroke="black" stroke-width="3" stroke-linecap="round"/>
<path d="M901.915 981.848C899.208 989.543 903.379 994.466 906.359 1001.42C907.802 1004.79 909.811 1002.99 912.645 1002.38C915.07 1001.86 918.287 1002.39 919.643 999.818C920.374 998.432 920.628 996.944 921.514 995.615C923.093 993.247 921.895 990.11 922.078 987.457" stroke="black" stroke-width="3" stroke-linecap="round"/>
<path d="M922.836 991.723C924.715 992.235 936.283 1004.17 933.956 1006.19" stroke="black" stroke-width="3" stroke-linecap="round"/>
<path d="M907.77 1003.86C910.782 1007.32 913.962 1013.11 918.073 1015.32C920.946 1016.85 923.799 1015.62 926.974 1015.73C930.952 1015.86 935.232 1010.61 935.493 1006.83" stroke="black" stroke-width="3" stroke-linecap="round"/>
<path d="M919.742 998.359C923.108 1002.07 925.911 1005.67 928.672 1009.78C929.293 1010.7 930.499 1011.35 930.898 1012.3" stroke="black" stroke-width="3" stroke-linecap="round"/>
<path d="M921.098 1016.9C921.196 1019.26 923.872 1022.2 924.804 1024.27C927.953 1031.25 935.519 1036.15 941.308 1040.9C948.772 1047.02 958.286 1050.2 967.027 1053.8" stroke="black" stroke-width="3" stroke-linecap="round"/>
<path d="M932.816 1015.07C941.725 1026.58 952.472 1034.66 964.147 1042.94C966.896 1044.89 969.457 1046.81 972.706 1047.87" stroke="black" stroke-width="3" stroke-linecap="round"/>
<path d="M1056.82 1073.7C1078.7 1078.02 1101.75 1080.69 1123.98 1077.82" stroke="black" stroke-width="3" stroke-linecap="round"/>
<path d="M1048.47 1079.98C1063.99 1082.04 1079.53 1083.18 1095.14 1084.26C1101.91 1084.72 1108.99 1085.42 1115.77 1084.75C1118.44 1084.48 1121.98 1085.88 1124.46 1084.47C1125.94 1083.62 1127.71 1081.96 1129.04 1080.8" stroke="black" stroke-width="3" stroke-linecap="round"/>
<path d="M872.133 1077.27C863.009 1076.64 864.971 1088.32 867.718 1093.71C871.313 1100.77 879.097 1104.63 886.776 1105.16C891.511 1105.49 897.273 1105.78 898.604 1100.06C899.843 1094.75 898.076 1090.32 894.214 1086.5C888.618 1080.96 880.525 1077.85 872.658 1077.31" stroke="#00192F" stroke-width="3" stroke-linecap="round"/>
<path d="M878.735 1065.61C887.407 1064.61 895.172 1065.76 900.407 1073.11C902.663 1076.28 904.597 1080.29 905.383 1084.14C905.969 1087.02 905.713 1089.94 906.364 1092.82" stroke="#00192F" stroke-width="3" stroke-linecap="round"/>
<path d="M894.996 1051.45C901.456 1052.8 907.713 1054.23 912.189 1059.37C916.612 1064.45 920.069 1071.08 920.689 1077.88C920.979 1081.06 920.848 1084.03 919.674 1087.06C918.971 1088.87 917.623 1090.05 917.488 1092" stroke="#00192F" stroke-width="3" stroke-linecap="round"/>
<path d="M900.087 1099.76C901.818 1097.84 902.817 1094.82 905.146 1093.49C906.369 1092.79 907.914 1093.95 909.146 1094.06C912.522 1094.38 916.137 1094.18 919.394 1093.19C920.177 1092.95 921.67 1092.29 920.108 1092.18" stroke="black" stroke-width="3" stroke-linecap="round"/>
<path d="M894.471 1051.42C892.111 1049.59 887.833 1048.87 884.846 1049.2C883.851 1049.31 881.307 1049.21 880.871 1049.95" stroke="#00192F" stroke-width="3" stroke-linecap="round"/>
<path d="M870.922 1071.92C869.973 1072.51 869.426 1073.09 868.679 1073.88" stroke="black" stroke-width="3" stroke-linecap="round"/>
<path d="M912.31 895.089L911.46 939.262L896.496 938.228C896.496 938.228 897.135 913.741 897.976 901.56C898.02 900.931 897.452 894.113 898.49 894.13C900.375 894.161 909.015 894.331 909.015 894.331" stroke="black" stroke-width="3" stroke-linecap="round"/>
<path d="M882.85 868.814C882.418 875.059 882.764 881.538 881.953 887.722C881.393 891.996 880.537 896.439 880.67 900.778C880.805 905.169 881.609 909.649 881.304 914.054C880.953 919.136 880.449 924.732 880.86 929.803C881.198 933.979 882.26 938.348 881.971 942.527" stroke="black" stroke-width="3" stroke-linecap="round"/>
<path d="M992.355 862.684C992.39 867.666 991.5 872.925 991.862 877.873C991.917 878.631 999.672 878.46 1000.83 878.58C1003.23 878.83 1005.63 879.552 1008.05 879.577C1009.46 879.592 1008.69 873.244 1008.67 872.359C1008.63 870.928 1009.54 861.763 1007.83 861.645C1003.13 861.32 998.018 862.11 993.549 860.658" stroke="black" stroke-width="3" stroke-linecap="round"/>
<path d="M926.696 928.228C928.394 932.185 928.685 933.108 932.897 933.399C938.929 933.816 944.851 934.368 950.839 935.137C952.538 935.355 953.047 935.48 953.71 933.842C954.387 932.172 956.098 929.054 956.042 927.211C956.037 927.065 928.342 925.707 924.255 925.425" stroke="black" stroke-width="3" stroke-linecap="round"/>
<path d="M984.53 945.399C986.289 945.411 988.054 945.291 989.811 945.237" stroke="black" stroke-width="3" stroke-linecap="round"/>
<path d="M973.984 953.102L986.047 953.935" stroke="black" stroke-width="3" stroke-linecap="round"/>
<path d="M996.086 953.578L1002.38 954.013" stroke="black" stroke-width="3" stroke-linecap="round"/>
<path d="M987.147 960.864C989.114 961 991.849 961.705 993.477 960.775" stroke="#00192F" stroke-width="3" stroke-linecap="round"/>
<path d="M768.239 1518.2C766.469 1533.6 764.863 1550.99 758.738 1565.43C756.619 1570.43 749.524 1575.52 755.529 1579.63C762.788 1584.61 771.874 1586.24 778.74 1591.87C782.739 1595.15 788.102 1598.12 793.015 1599.65C805.344 1603.5 817.924 1605.14 830.774 1605.27C837.815 1605.34 841.922 1606.37 848.093 1602.85C849.926 1601.8 849.752 1599.82 851.872 1598.93C853.304 1598.34 855.48 1597.86 856.276 1596.45C860.876 1588.29 861.56 1576.19 863.047 1566.96C863.916 1561.57 864.831 1556.46 865.211 1550.96" stroke="black" stroke-width="3" stroke-linecap="round"/>
<path d="M844.639 1602.07C846.014 1616.16 852.061 1629.44 844.045 1642.89C838.976 1651.4 836.599 1661.21 831.171 1669.63C826.716 1676.54 809.096 1673.22 802.321 1672.91C790.055 1672.35 779.452 1671.53 767.419 1667.86C761.329 1666 755.676 1662.34 749.809 1660.79C739.776 1658.14 741.773 1632.84 741.773 1632.84C741.773 1632.84 753.872 1609.55 769.399 1588.44" stroke="black" stroke-width="3" stroke-linecap="round"/>
<path d="M1069.25 1543.01C1069.08 1550.09 1070.95 1557.45 1073.25 1564.11C1074.54 1567.89 1074.47 1571.84 1076.02 1575.55C1077.47 1579.03 1082.02 1584.35 1082.17 1588.01C1082.59 1598.04 1089.06 1600.35 1098.03 1601.91C1110.7 1604.11 1125.69 1606.91 1138.61 1605.38C1147.2 1604.36 1161.96 1599.47 1165.69 1590.71C1166.45 1588.93 1166.8 1583.29 1168.01 1582.13C1169.98 1580.22 1173.39 1579.74 1175.48 1577.91C1177.76 1575.93 1176.17 1569.3 1176.08 1566.76C1175.92 1561.81 1176.1 1557.21 1175.3 1552.29C1174.13 1545 1172.09 1536.28 1168.39 1529.81" stroke="black" stroke-width="3" stroke-linecap="round"/>
<path d="M1070.07 1560.11C1089.71 1571.69 1115.02 1584.33 1138.31 1576.63C1146.34 1573.98 1154.88 1570.68 1162.24 1566.48C1162.93 1566.08 1168.19 1562.88 1167.11 1562.8" stroke="black" stroke-width="3" stroke-linecap="round"/>
<path d="M1092.36 1556.63C1097.5 1560.01 1105.97 1559.58 1111.84 1559.99C1118.78 1560.47 1125.79 1560.22 1132.73 1559.93C1140.43 1559.61 1151.08 1558.28 1157.2 1553.1C1162.34 1548.75 1171.39 1541.64 1174.03 1535.21" stroke="black" stroke-width="3" stroke-linecap="round"/>
<path d="M1104.78 1594.58C1118.07 1595.5 1135.69 1599.94 1147.96 1592.56C1150.53 1591.01 1154.9 1589.69 1156.41 1587.13" stroke="#00192F" stroke-width="3" stroke-linecap="round"/>
<path d="M862.355 1577.83C848.716 1583.84 832.348 1582.77 817.7 1581.76C801.279 1580.62 786.714 1576.76 771.641 1570.55" stroke="black" stroke-width="3" stroke-linecap="round"/>
<path d="M763.66 1540.94C765.509 1541.3 770.408 1548.17 772.139 1549.6C777.744 1554.22 784.82 1559.15 791.874 1561.38C804.333 1565.31 818.622 1566.5 831.48 1568.46C833.947 1568.83 843.406 1570.34 845.015 1567.61" stroke="black" stroke-width="3" stroke-linecap="round"/>
<path d="M756.605 1570.52C760.46 1573.6 766.054 1575.76 770.311 1578.48C776.803 1582.64 782.984 1584.78 790.335 1586.88C796.078 1588.53 804.435 1588.33 809.305 1591.2" stroke="#00192F" stroke-width="3" stroke-linecap="round"/>
<path d="M1098.06 1604.67C1104.61 1616.29 1108.59 1630.2 1109.57 1643.79C1109.78 1646.71 1109.35 1649.7 1109.68 1652.58C1110.46 1659.61 1112.89 1663.73 1116.43 1669.47C1117.96 1671.95 1127.75 1671.23 1130.18 1671.63C1144.32 1673.93 1158.93 1671.08 1173.1 1669.6C1180.93 1668.78 1193.91 1666.42 1198.12 1658.04C1201.42 1651.48 1197.56 1638.99 1196.65 1632.02C1195.65 1624.39 1196.21 1616.13 1195.23 1608.91C1194.35 1602.44 1190.76 1599.31 1186.17 1595.05C1182.84 1591.97 1175.53 1584.33 1171.24 1584.03" stroke="#00192F" stroke-width="3" stroke-linecap="round"/>
<path d="M761.269 559.997C765.84 560.155 771.418 559.273 775.716 557.685C777.629 556.979 779.642 556.943 781.622 556.566C783.746 556.161 783.911 556.598 784.089 554.02C784.336 550.456 783.722 545.022 784.98 541.548C785.228 540.862 792.068 541.508 792.796 541.437C799.558 540.785 806.181 538.455 812.681 536.587C820.834 534.245 828.503 531.655 836.982 530.486C842.928 529.666 848.904 528.935 854.769 527.754C863.015 526.095 871.62 526.461 879.772 525.408" stroke="black" stroke-width="3" stroke-linecap="round"/>
<path d="M998.895 525.999C1006.57 526.529 1014.06 528.066 1021.75 528.597C1031 529.236 1040.25 529.876 1049.51 530.516C1065.67 531.632 1082.21 531.248 1098.27 532.358" stroke="black" stroke-width="3" stroke-linecap="round"/>
<path d="M824.165 585.734C815.181 585.674 806.259 585.005 797.295 584.386C792.848 584.078 787.746 584.72 787.19 590.195C786.403 597.939 791.969 598.919 799.171 599.001C802.61 599.04 805.956 599.753 809.401 599.991C812.143 600.181 814.861 599.859 817.574 600.047" stroke="black" stroke-width="3" stroke-linecap="round"/>
<path d="M1057.55 576.394C1065.04 576.912 1072.52 575.901 1079.95 576.415C1081.11 576.495 1084.84 575.523 1085.55 576.547C1085.93 577.103 1086.65 577.475 1087.08 578.04C1087.95 579.16 1087.65 580.297 1088 581.555C1090.48 590.358 1069.41 588.928 1064.34 588.577" stroke="black" stroke-width="3" stroke-linecap="round"/>
<path d="M823.87 682.988C826.404 682.482 828.729 680.078 830.972 678.877C836.723 675.797 842.946 673.205 849.025 670.863C865.919 664.357 884.662 663.656 902.566 662.348C934.014 660.052 965.8 662.116 997.201 664.286C1014.29 665.467 1030.68 669.438 1047.52 671.912C1052.36 672.621 1066.5 676.234 1061.62 675.897" stroke="black" stroke-width="3" stroke-linecap="round"/>
<path d="M823.558 672.741C830.92 666.33 836.918 660.825 846.33 657.27C858.387 652.716 869.936 648.434 882.683 646.715C889.623 645.779 897.223 644.579 904.247 644.626C910.845 644.669 918.364 645.297 924.749 643.94" stroke="black" stroke-width="3" stroke-linecap="round"/>
<path d="M1016.53 603.241C1016.53 603.241 1022.04 619.423 1022.85 630.21C1023.77 642.378 1021.18 650.936 1019.74 661.3C1016.74 682.877 1008.25 701.1 997.727 720.004C992.758 728.932 986.539 737.003 980.153 744.925C973.922 752.654 965.94 757.642 958.389 763.875C948.944 771.672 936.964 777.091 926.377 783.139" stroke="black" stroke-width="3" stroke-linecap="round"/>
<path d="M1021.57 707.899C1017.69 726.914 1006.37 745.154 993.26 759.123C990.01 762.585 984.833 768.673 980.428 770.508" stroke="black" stroke-width="3" stroke-linecap="round"/>
<path d="M970.736 600.013C967.893 599.612 964.488 599.005 964.907 595.577C965.871 587.686 1000.06 592.749 989.792 616.955C988.577 619.821 986.378 619.847 983.663 619.315C979.005 618.403 978.652 612.302 978.102 608.534C977.333 603.271 975.811 600.73 970.736 600.013Z" stroke="black" stroke-width="3" stroke-linecap="round"/>
<path d="M862.165 608.988C869.538 610.578 856.759 621.154 852.378 625.64C834.589 643.858 845.482 620.819 848.848 616.863C852.215 612.907 858.179 608.128 862.165 608.988Z" stroke="black" stroke-width="3" stroke-linecap="round"/>
<path d="M879.907 602.831C878.983 602.957 874.919 603.254 874.988 601.654C875.384 592.535 895.286 595.626 890.046 598.959C887.004 600.894 883.507 602.34 879.907 602.831Z" stroke="black" stroke-width="3" stroke-linecap="round"/>
<path d="M1027.09 942.596C1030.21 942.01 1033.31 941.426 1036.26 940.254C1037.05 939.939 1044.81 937.079 1045.04 937.885C1045.93 940.975 1047.1 943.969 1048.17 947.002C1048.92 949.141 1049.68 951.28 1050.45 953.411C1050.54 953.643 1050.71 954.342 1050.73 954.096" stroke="black" stroke-width="3" stroke-linecap="round"/>
<path d="M1026.39 942.547C1026.56 946.492 1028.17 950.014 1029.56 953.651C1030.28 955.516 1030.68 958.324 1032.01 959.849" stroke="black" stroke-width="3" stroke-linecap="round"/>
<path d="M1016.47 912.734C1016.87 914.124 1019.61 914.615 1020.74 914.856C1023.95 915.543 1027.47 915.514 1030.75 915.417C1033.93 915.322 1038.21 913.328 1040.62 911.166C1041.7 910.198 1042.41 908.686 1043.2 907.481C1044.14 906.041 1045.18 904.685 1045.8 903.067C1046.38 901.555 1047.18 900.065 1047.29 898.419" stroke="black" stroke-width="3" stroke-linecap="round"/>
<path d="M1018.63 901.84C1023.11 902.149 1028.22 902.618 1032.09 899.937C1034.07 898.568 1035.13 895.865 1037.12 894.673C1038.98 893.562 1040.22 892.798 1041.02 890.649C1041.62 889.015 1042.08 887.307 1042.54 885.638" stroke="black" stroke-width="3" stroke-linecap="round"/>
<path d="M1030.15 928.945C1029.29 928.846 1027.87 928.302 1027.19 929.132C1026.29 930.22 1026.3 932.344 1027.21 933.388C1029.37 935.87 1033.7 934.692 1035.3 932.251C1036.62 930.232 1034.36 928.228 1032.9 927.177C1032.24 926.703 1029.41 925.665 1028.91 926.51" stroke="black" stroke-width="3" stroke-linecap="round"/>
<path d="M909.924 1164.48C929.473 1165.83 948.16 1171.48 967.933 1169.99C972.789 1169.62 979.09 1170.91 983.684 1168.75C989.566 1165.98 996.051 1163.92 1002.46 1162.78" stroke="black" stroke-width="3" stroke-linecap="round"/>
<path d="M911.912 1174.74C921.575 1175.4 930.136 1178.35 939.495 1180.17C949.821 1182.17 960.349 1181.92 970.629 1179.77C977.194 1178.4 983.758 1176.55 990.164 1174.75C993.65 1173.77 998.048 1174.07 1001.09 1172.8" stroke="black" stroke-width="3" stroke-linecap="round"/>
<path d="M932.731 1137.05C935.193 1137.22 937.01 1136.89 938.681 1138.81" stroke="black" stroke-width="3" stroke-linecap="round"/>
<path d="M973.777 1138.54L981.163 1139.05" stroke="black" stroke-width="3" stroke-linecap="round"/>
<path d="M922.582 1186.27L929.296 1186.73" stroke="black" stroke-width="3" stroke-linecap="round"/>
<path d="M985.833 1188.62C987.778 1188.75 989.494 1188.2 991.25 1188.32" stroke="black" stroke-width="3" stroke-linecap="round"/>
<path d="M805.572 1220C805.132 1217.53 802.338 1221.12 802.092 1222.09C801.671 1223.75 801.448 1226.45 803.066 1227.51C807.252 1230.26 812.315 1223.01 806.868 1220.77" stroke="black" stroke-width="3" stroke-linecap="round"/>
<path d="M865.721 1208.65C863.256 1208.75 863.232 1212.22 864.709 1213.52C866.775 1215.34 871.445 1215.38 872.194 1212.05C872.673 1209.93 874.063 1206.58 871.212 1205.65C867.26 1204.37 866.963 1205.12 863.799 1207.16" stroke="black" stroke-width="3" stroke-linecap="round"/>
<path d="M1386.77 1531.87C1354.81 1515.63 1266.29 1516.17 1263.68 1467.22C1261.73 1430.71 1287.51 1403.97 1319.26 1391.89C1413.4 1356.09 1551.37 1428.54 1616.36 1328.22C1684.68 1222.75 1605.48 1152.05 1521.3 1108.15C1470.75 1081.78 1363.85 1080.22 1312.22 1087.68C1221.01 1100.85 1170.87 1145.89 1109.88 1141.68C1064.57 1138.55 959.004 1139.36 963.674 1071.79C958.128 1058.52 948.292 1063.14 944.067 1067.11C936.262 1074.76 937.021 1089.24 938.16 1099.18C940.171 1116.73 955.012 1127.28 968.72 1136.26C1003.64 1159.15 1050.18 1161.77 1090.45 1165.16C1172.96 1172.09 1255.42 1104.62 1338.13 1108.19C1367.84 1109.48 1397.73 1109.42 1427.32 1112.7C1449.22 1115.12 1472.47 1115.94 1493.89 1121.36C1536.54 1132.14 1575.3 1163.11 1598.14 1200.25C1617.99 1232.54 1612.73 1303.17 1583.16 1329.93C1512.77 1393.64 1427.46 1349.24 1352.6 1359.11C1287.51 1367.68 1225.53 1414.46 1235.03 1479.29C1244.06 1540.82 1336.82 1530.61 1380.41 1559.14" stroke="black" stroke-width="3" stroke-linecap="round"/>
<path d="M757.745 711.302C764.895 711.797 773.407 711.396 778.9 716.916C780.423 718.447 782.692 720.16 783.909 721.876C784.864 723.223 784.314 724.814 785.813 725.698" stroke="black" stroke-width="3" stroke-linecap="round"/>
<path d="M742.27 730.992C742.029 743.631 750.347 755.966 760.874 762.171" stroke="black" stroke-width="3" stroke-linecap="round"/>
<path d="M814.369 721.027C806.763 726.686 794.123 723.999 785.249 725.196C778.122 726.157 781.437 740.961 781.08 746.128C780.595 753.149 780.699 760.055 780.466 767.029C780.353 770.432 781.692 773.329 781.446 776.877" stroke="black" stroke-width="3" stroke-linecap="round"/>
<path d="M818.937 622.556C850.853 577.821 892.857 560.492 949.715 561.294C993.158 561.907 1040.34 580.392 1059.51 600.197" stroke="black" stroke-width="3" stroke-linecap="round"/>
<path d="M769.471 1587.45C751.34 1603.23 740.144 1624.35 734.683 1647.64C731.697 1660.37 729.697 1674.92 733.469 1687.76C738.129 1703.62 759.12 1712.12 773.227 1716.01C794.532 1721.89 820.006 1721.78 836.918 1705.77C848.242 1695.05 850.32 1678.67 853.158 1664.18C854.686 1656.37 855.844 1645.66 854.7 1637.83C853.596 1630.27 855.397 1622.8 852.974 1615.27C851.673 1611.23 851.428 1605.39 851.722 1601.15" stroke="black" stroke-width="3" stroke-linecap="round"/>
<path d="M1095.27 1600.52C1099.42 1623.71 1094.47 1647.08 1096 1670.41C1096.71 1681.18 1098.45 1698.46 1108.49 1705.21C1121.09 1713.69 1141.2 1716.19 1155.93 1716.18C1174.04 1716.16 1189.64 1706.9 1195.92 1689.18C1202.92 1669.45 1204.7 1641.47 1199.68 1620.8C1197.83 1613.16 1195.29 1603.4 1191.29 1596.61C1187.71 1590.54 1183.03 1580.19 1176.93 1576.51" stroke="black" stroke-width="3" stroke-linecap="round"/>
<path d="M330.422 473.483C325.236 464.223 317.547 448.699 312.074 440.005C309.919 436.583 337.446 437.134 347.15 435.977C350.271 435.604 328.058 453.753 324.532 457.139C322.914 458.693 309.221 470.689 309.607 469.504C312.701 460.027 317.265 450.26 320.841 440.836C322.795 435.689 326.405 421.084 327.148 425.495C330.074 442.868 332.313 460.821 333.808 479.107" stroke="#00192F" stroke-width="3" stroke-linecap="round"/>
<path d="M1379.75 682.211C1388.48 676.633 1402.2 666.879 1410.94 661.883C1414.38 659.916 1389.41 649.401 1381.2 644.577C1378.56 643.026 1390.54 666.864 1392.22 671.065C1392.99 672.992 1400.02 688.354 1400.19 687.222C1401.58 678.164 1401.77 668.28 1402.7 659.075C1403.21 654.046 1406.38 640.549 1403.78 643.895C1393.51 657.073 1383.62 671.003 1374.24 685.505" stroke="#00192F" stroke-width="3" stroke-linecap="round"/>
<path d="M1390.14 1531.4C1392.3 1534.38 1391.09 1540.9 1390.36 1544.15C1389.19 1549.34 1385.79 1554.19 1382.64 1558.4" stroke="black" stroke-width="3" stroke-linecap="round"/>
<path d="M1410.34 1541.08C1410.83 1547.5 1407.55 1557.43 1402.91 1561.83C1401.88 1562.81 1399.58 1563.01 1398.31 1563.4" stroke="black" stroke-width="3" stroke-linecap="round"/>
<path d="M1395.14 1532.9C1399.23 1533.27 1403.19 1535.91 1407.14 1536.9" stroke="black" stroke-width="3" stroke-linecap="round"/>
<path d="M1385.14 1561.4C1389.38 1561.62 1394.45 1563.35 1398.64 1564.4" stroke="black" stroke-width="3" stroke-linecap="round"/>
<path d="M1413.14 1545.9C1416.62 1545.9 1420.58 1547.78 1423.91 1548.65C1429.49 1550.1 1434.92 1551.84 1440.53 1553.12C1443.24 1553.74 1450.7 1553.83 1451.53 1557.12C1452.49 1560.98 1454.15 1564.97 1454.64 1568.9" stroke="black" stroke-width="3" stroke-linecap="round"/>
<path d="M1455.14 1569.9C1453.66 1572.32 1448.66 1574.4 1446.14 1574.4" stroke="black" stroke-width="3" stroke-linecap="round"/>
<path d="M1405.64 1562.9C1409.09 1564.99 1413.19 1564.47 1417.03 1565.29C1420.12 1565.95 1423.15 1566.87 1426.3 1567.51C1429.78 1568.22 1432.53 1570.24 1435.64 1571.79C1436.83 1572.38 1440.63 1572.88 1441.14 1573.9" stroke="black" stroke-width="3" stroke-linecap="round"/>
<path d="M1419.14 1554.4C1426.82 1557.29 1434.57 1559.82 1442.41 1562.2C1443.47 1562.53 1444.65 1562.9 1445.64 1563.4" stroke="black" stroke-width="3" stroke-linecap="round"/>
<path d="M714.01 584.676C712.384 600.319 696.433 615.835 682.347 623.807C685.608 630.066 695.11 653.688 699.452 664.716C703.795 675.745 670.596 649.861 670.596 649.861L642.352 628.755C602.991 632.468 537.506 628.755 543.365 556.117C546.846 512.952 600.489 505.583 642.348 505.582C686.401 505.581 718.338 543.029 714.01 584.676Z" stroke="#00192F" stroke-width="3" stroke-linecap="round"/>
<path d="M620.659 569.192C622.457 573.946 632.057 572.711 635.308 570.056C638.624 567.348 639.344 562.075 637.853 558.462C636.003 553.978 630.37 553.031 625.673 552.865C617.128 552.562 609.115 555.381 605.419 562.911C603.077 567.682 604.098 574.959 607.803 578.92C611.999 583.405 620.095 584.065 626.112 583.336C633.421 582.451 641.625 580.048 646.823 575.005C654.591 567.469 652.317 557.546 646.315 549.93C642.851 545.534 637.916 542.537 631.831 542.201C627.53 541.964 623.471 542.517 619.228 543.218C612.773 544.284 605.444 545.685 599.69 548.785C590.519 553.726 589.345 564.679 591.781 573.161C594.201 581.581 601.142 589.74 609.184 594.426C618.297 599.737 628.398 598.632 637.74 594.079C642.99 591.521 647.063 588.721 651.644 585.275C653.546 583.844 655.404 582.359 657.179 580.799C667.705 571.548 655.396 582.022 662.816 574.682" stroke="black" stroke-width="3" stroke-linecap="round"/>
<path d="M384.678 1321.84C390.329 1308.14 400.256 1286.54 405.287 1272.86C407.268 1267.47 419.249 1305.43 424.641 1317.84C426.375 1321.84 400.648 1304.5 396.128 1302.11C394.054 1301.02 377.497 1290.91 378.695 1290.59C388.279 1288.03 398.781 1287.28 408.538 1285.42C413.867 1284.4 428.114 1278.89 424.641 1283.05C410.961 1299.47 396.47 1315.36 381.354 1330.48" stroke="#00192F" stroke-width="3" stroke-linecap="round"/>
</svg>
