<svg width="128" height="56" viewBox="0 0 128 56" fill="none" xmlns="http://www.w3.org/2000/svg">
<path d="M110.914 35.9703C110.426 35.9703 109.977 35.9153 109.567 35.8053C109.174 35.7111 108.828 35.5619 108.528 35.3576C108.245 35.1534 108.001 34.8942 107.796 34.58C107.592 34.2658 107.442 33.9045 107.348 33.4961C107.253 33.0876 107.206 32.6321 107.206 32.1294L107.182 20.3238C107.182 20.1039 107.206 19.9154 107.253 19.7583C107.3 19.6012 107.395 19.4755 107.536 19.3813C107.694 19.287 107.922 19.2399 108.221 19.2399C108.536 19.2399 108.765 19.287 108.906 19.3813C109.064 19.4598 109.166 19.5776 109.213 19.7347C109.26 19.8761 109.284 20.0568 109.284 20.2767V32.2001C109.284 32.4828 109.316 32.7263 109.379 32.9305C109.442 33.1348 109.536 33.3154 109.662 33.4725C109.804 33.6139 109.977 33.716 110.182 33.7788C110.386 33.8417 110.63 33.8731 110.914 33.8731C111.181 33.8731 111.394 33.9045 111.551 33.9674C111.709 34.0302 111.819 34.1402 111.882 34.2973C111.961 34.4543 112 34.6664 112 34.9335C112 35.1848 111.961 35.3891 111.882 35.5461C111.803 35.6875 111.685 35.7896 111.528 35.8525C111.37 35.931 111.166 35.9703 110.914 35.9703ZM105.34 35.9703C104.868 35.9703 104.435 35.9153 104.041 35.8053C103.663 35.7111 103.333 35.5697 103.049 35.3812C102.766 35.177 102.53 34.9256 102.341 34.6271C102.152 34.313 102.01 33.9516 101.916 33.5432C101.837 33.1191 101.798 32.6478 101.798 32.1294V20.3238C101.798 20.1039 101.821 19.9154 101.868 19.7583C101.916 19.6012 102.01 19.4755 102.152 19.3813C102.309 19.287 102.538 19.2399 102.837 19.2399C103.136 19.2399 103.356 19.287 103.498 19.3813C103.655 19.4598 103.758 19.5776 103.805 19.7347C103.868 19.8761 103.9 20.0568 103.9 20.2767V32.2001C103.9 32.5614 103.955 32.8677 104.065 33.1191C104.175 33.3704 104.34 33.5589 104.561 33.6846C104.781 33.8103 105.041 33.8731 105.34 33.8731C105.576 33.8731 105.765 33.9045 105.907 33.9674C106.049 34.0302 106.151 34.1402 106.214 34.2973C106.277 34.4543 106.308 34.6664 106.308 34.9335C106.308 35.1848 106.269 35.3891 106.19 35.5461C106.127 35.6875 106.025 35.7896 105.883 35.8525C105.757 35.931 105.576 35.9703 105.34 35.9703Z" fill="white"/>
<path d="M94.5937 36.0881C93.649 36.0881 92.8067 35.931 92.0667 35.6168C91.3267 35.3026 90.697 34.8785 90.1774 34.3444C89.6736 33.7946 89.2878 33.1662 89.0202 32.4593C88.7525 31.7523 88.6187 30.9904 88.6187 30.1736C88.6187 29.0896 88.8706 28.1235 89.3744 27.2752C89.8782 26.4269 90.571 25.7592 91.4527 25.2722C92.3501 24.7695 93.3735 24.5182 94.5228 24.5182C95.3101 24.5182 96.0107 24.6439 96.6247 24.8952C97.2545 25.1309 97.7898 25.4529 98.2306 25.8613C98.6715 26.2698 99.01 26.7254 99.2461 27.2281C99.4823 27.7308 99.6004 28.2335 99.6004 28.7362C99.6004 29.5373 99.4115 30.1029 99.0336 30.4328C98.6557 30.7469 98.1913 30.904 97.6402 30.904H90.815C90.7993 31.5953 90.9804 32.1922 91.3582 32.6949C91.7518 33.1819 92.2399 33.5589 92.8224 33.826C93.4207 34.093 94.019 34.2266 94.6173 34.2266C95.0581 34.2266 95.436 34.203 95.7509 34.1559C96.0658 34.1087 96.3413 34.0459 96.5775 33.9674C96.8136 33.8888 97.0183 33.8103 97.1915 33.7317C97.3647 33.6532 97.5143 33.5746 97.6402 33.4961C97.7819 33.4175 97.9157 33.3625 98.0417 33.3311C98.1834 33.2997 98.3172 33.3154 98.4432 33.3783C98.5849 33.4254 98.6951 33.5275 98.7738 33.6846C98.8683 33.8103 98.9313 33.9281 98.9627 34.038C98.9942 34.148 99.01 34.2658 99.01 34.3915C99.01 34.6114 98.821 34.8549 98.4432 35.122C98.0653 35.3891 97.5379 35.6168 96.8609 35.8053C96.1996 35.9939 95.4439 36.0881 94.5937 36.0881ZM90.815 29.5138H96.7428C97.0419 29.5138 97.2624 29.4745 97.4041 29.3959C97.5615 29.3174 97.6402 29.1053 97.6402 28.7597C97.6402 28.3199 97.5064 27.9271 97.2387 27.5815C96.9711 27.2202 96.6011 26.9296 96.1288 26.7097C95.6722 26.4897 95.1447 26.3798 94.5465 26.3798C93.8537 26.3798 93.2161 26.5211 92.6335 26.8039C92.0667 27.071 91.618 27.4401 91.2874 27.9114C90.9567 28.3827 90.7993 28.9168 90.815 29.5138Z" fill="white"/>
<path d="M75.6257 35.8996C75.3896 35.8996 75.2006 35.8603 75.0589 35.7818C74.933 35.7189 74.8306 35.6325 74.7519 35.5226C74.6889 35.3969 74.6417 35.2634 74.6102 35.122L70.9497 25.8378C70.8709 25.6021 70.8316 25.4058 70.8316 25.2487C70.8473 25.0916 70.9103 24.9581 71.0205 24.8481C71.1465 24.7381 71.3275 24.6439 71.5637 24.5653C71.9416 24.4239 72.2328 24.3925 72.4375 24.4711C72.6422 24.5339 72.8075 24.7381 72.9334 25.0837L75.6257 32.2472L78.1291 25.2487C78.1763 25.123 78.2314 25.0052 78.2944 24.8952C78.3731 24.7695 78.4833 24.6674 78.625 24.5889C78.7667 24.5103 78.9478 24.4711 79.1682 24.4711C79.4201 24.4711 79.6091 24.5103 79.735 24.5889C79.8767 24.6674 79.9869 24.7617 80.0656 24.8717C80.1601 24.9816 80.2231 25.0994 80.2546 25.2251L82.7343 32.2943L85.4266 25.2016C85.5683 24.8245 85.7415 24.581 85.9462 24.4711C86.1666 24.3611 86.4657 24.3768 86.8436 24.5182C87.1742 24.6282 87.3946 24.7853 87.5049 24.9895C87.6151 25.1937 87.5914 25.4843 87.434 25.8613L83.7734 35.1456C83.7262 35.2712 83.6632 35.3969 83.5845 35.5226C83.5215 35.6325 83.4192 35.7189 83.2775 35.7818C83.1515 35.8603 82.9784 35.8996 82.7579 35.8996C82.5375 35.8996 82.3643 35.8682 82.2384 35.8053C82.1124 35.7425 82.0101 35.6483 81.9314 35.5226C81.8526 35.3812 81.7818 35.232 81.7188 35.0749L79.1918 27.8172L76.6412 35.0749C76.5783 35.2634 76.5074 35.4205 76.4287 35.5461C76.3657 35.6718 76.2713 35.7582 76.1453 35.8053C76.0193 35.8682 75.8462 35.8996 75.6257 35.8996Z" fill="white"/>
<path d="M65.2806 36.0174C64.4619 36.0174 63.6904 35.8839 62.9662 35.6168C62.2577 35.3498 61.6279 34.9649 61.0768 34.4622C60.5415 33.9595 60.1164 33.3625 59.8016 32.6713C59.5024 31.9644 59.3528 31.1632 59.3528 30.2678C59.3528 29.3724 59.5024 28.5791 59.8016 27.8879C60.1164 27.1809 60.5415 26.5761 61.0768 26.0734C61.6122 25.5707 62.2341 25.1858 62.9425 24.9188C63.6668 24.6517 64.4304 24.5182 65.2334 24.5182C65.7687 24.5182 66.2961 24.6046 66.8157 24.7774C67.3352 24.9345 67.7918 25.1466 68.1854 25.4136C68.5948 25.665 68.886 25.932 69.0592 26.2148C69.2167 26.419 69.3269 26.5918 69.3899 26.7332C69.4686 26.8589 69.4765 27.0081 69.4135 27.1809C69.3505 27.3066 69.2639 27.4244 69.1537 27.5344C69.0435 27.6286 68.9333 27.7072 68.8231 27.77C68.5397 27.99 68.2563 28.0214 67.9729 27.8643C67.7997 27.6915 67.6029 27.5344 67.3825 27.393C67.1778 27.2359 66.9574 27.0945 66.7212 26.9689C66.485 26.8432 66.241 26.7489 65.9891 26.6861C65.7529 26.6075 65.501 26.5683 65.2334 26.5683C64.4934 26.5683 63.84 26.7254 63.2732 27.0395C62.7064 27.338 62.2655 27.77 61.9507 28.3356C61.6515 28.8854 61.5019 29.5295 61.5019 30.2678C61.5019 31.0062 61.6515 31.6502 61.9507 32.2001C62.2655 32.7499 62.6985 33.1819 63.2496 33.4961C63.8164 33.8103 64.4619 33.9674 65.1861 33.9674C65.5168 33.9674 65.8316 33.9281 66.1308 33.8495C66.4457 33.7553 66.7369 33.6375 67.0046 33.4961C67.2722 33.339 67.4927 33.174 67.6659 33.0012C67.8233 32.8913 67.9571 32.797 68.0673 32.7185C68.1776 32.6399 68.3114 32.6006 68.4688 32.6006C68.5948 32.6006 68.7286 32.6556 68.8703 32.7656C69.012 32.8599 69.1616 33.0091 69.319 33.2133C69.445 33.3547 69.5158 33.5039 69.5316 33.661C69.5631 33.8181 69.5394 33.9674 69.4607 34.1087C69.382 34.2501 69.256 34.3915 69.0828 34.5329C68.8309 34.7842 68.4924 35.0277 68.0673 35.2634C67.658 35.4833 67.2093 35.664 66.7212 35.8053C66.2331 35.9467 65.7529 36.0174 65.2806 36.0174Z" fill="white"/>
<path d="M52.6555 35.9703C52.3564 35.9703 52.1281 35.9232 51.9706 35.8289C51.8289 35.7504 51.7345 35.6325 51.6872 35.4755C51.6557 35.3027 51.64 35.1063 51.64 34.8864V25.6021C51.64 25.3665 51.6636 25.1701 51.7109 25.013C51.7581 24.856 51.8526 24.746 51.9943 24.6831C52.136 24.6046 52.3643 24.5653 52.6791 24.5653C52.9625 24.5653 53.1751 24.6046 53.3168 24.6831C53.4742 24.746 53.5766 24.8481 53.6238 24.9895C53.6868 25.1152 53.7183 25.2644 53.7183 25.4372L53.6238 26.1441C53.734 25.9399 53.86 25.7357 54.0017 25.5315C54.1591 25.3272 54.348 25.1466 54.5685 24.9895C54.8046 24.8167 55.0802 24.6753 55.395 24.5653C55.7257 24.4554 56.1272 24.4004 56.5995 24.4004C56.8356 24.4004 57.0561 24.4239 57.2607 24.4711C57.4812 24.5025 57.6858 24.5575 57.8748 24.636C58.0795 24.7146 58.2526 24.8088 58.3943 24.9188C58.536 25.013 58.6462 25.123 58.725 25.2487C58.8194 25.3586 58.8667 25.4922 58.8667 25.6493C58.8667 25.9949 58.7565 26.2934 58.536 26.5447C58.3156 26.7803 58.0873 26.8982 57.8512 26.8982C57.6465 26.8982 57.4969 26.8746 57.4024 26.8275C57.308 26.7646 57.2135 26.7018 57.119 26.639C57.0403 26.5761 56.9222 26.5211 56.7648 26.474C56.6074 26.4112 56.3554 26.3798 56.0091 26.3798C55.7729 26.3798 55.521 26.4269 55.2533 26.5211C55.0014 26.6154 54.7574 26.7568 54.5212 26.9453C54.2851 27.1181 54.0883 27.3459 53.9308 27.6286C53.7891 27.9114 53.7183 28.2413 53.7183 28.6183V34.9335C53.7183 35.1534 53.6946 35.3419 53.6474 35.499C53.6002 35.6561 53.4978 35.7739 53.3404 35.8525C53.1987 35.931 52.9704 35.9703 52.6555 35.9703Z" fill="white"/>
<path d="M47.7853 35.9467C47.439 35.9467 47.1871 35.876 47.0296 35.7347C46.8879 35.5933 46.8013 35.3733 46.7698 35.0749L46.8643 33.8967C46.7069 34.148 46.4628 34.4386 46.1322 34.7685C45.8016 35.0827 45.3686 35.3655 44.8333 35.6168C44.298 35.8525 43.6446 35.9703 42.8731 35.9703C42.1174 35.9703 41.4089 35.8211 40.7476 35.5226C40.1021 35.2241 39.5274 34.8078 39.0236 34.2737C38.5355 33.7396 38.1498 33.1269 37.8664 32.4357C37.5987 31.7445 37.4649 31.0062 37.4649 30.2207C37.4649 29.4509 37.5987 28.7283 37.8664 28.0528C38.1498 27.3616 38.5434 26.7568 39.0472 26.2384C39.551 25.72 40.1257 25.3115 40.7712 25.013C41.4325 24.7146 42.1331 24.5653 42.8731 24.5653C43.5659 24.5653 44.1563 24.6596 44.6443 24.8481C45.1324 25.0209 45.5497 25.2565 45.896 25.555C46.2581 25.8378 46.573 26.1598 46.8407 26.5211L46.7935 25.5315C46.7777 25.1858 46.8486 24.9424 47.006 24.801C47.1792 24.6439 47.4468 24.5653 47.809 24.5653C48.1081 24.5653 48.3207 24.6125 48.4466 24.7067C48.5883 24.801 48.6828 24.9345 48.73 25.1073C48.7772 25.2801 48.8009 25.4922 48.8009 25.7435V34.8392C48.8009 35.0592 48.7772 35.2555 48.73 35.4283C48.6828 35.6011 48.5883 35.7268 48.4466 35.8053C48.3049 35.8996 48.0845 35.9467 47.7853 35.9467ZM43.2274 33.9909C43.8571 33.9909 44.4318 33.826 44.9514 33.4961C45.4867 33.1662 45.9039 32.7263 46.203 32.1765C46.5179 31.611 46.6754 30.9669 46.6754 30.2442C46.6754 29.5059 46.5101 28.8618 46.1794 28.312C45.8645 27.7465 45.4394 27.3066 44.9041 26.9924C44.3846 26.6625 43.8099 26.4976 43.1801 26.4976C42.4401 26.4976 41.7946 26.6704 41.2436 27.016C40.7083 27.3459 40.2832 27.7936 39.9683 28.3591C39.6534 28.9247 39.4959 29.5687 39.4959 30.2914C39.4959 30.9983 39.6534 31.6345 39.9683 32.2001C40.2832 32.7499 40.7161 33.1897 41.2672 33.5196C41.834 33.8338 42.4874 33.9909 43.2274 33.9909Z" fill="white"/>
<path d="M28.0132 19C28.0132 20.5741 27.7025 22.1328 27.0987 23.587C26.495 25.0413 25.6101 26.3627 24.4946 27.4757C23.3791 28.5887 22.0548 29.4717 20.5972 30.074C19.1397 30.6764 17.5776 30.9865 16 30.9865L16 24.2886C16.6961 24.2886 17.3853 24.1518 18.0284 23.8861C18.6715 23.6203 19.2558 23.2307 19.748 22.7396C20.2402 22.2485 20.6306 21.6655 20.897 21.0239C21.1633 20.3822 21.3004 19.6945 21.3004 19H28.0132Z" fill="#FFD34F"/>
<path d="M16 24.3415C17.5776 24.3415 19.1397 24.6515 20.5972 25.2539C22.0548 25.8563 23.3791 26.7392 24.4946 27.8523C25.6101 28.9653 26.495 30.2867 27.0987 31.7409C27.7025 33.1952 28.0132 34.7539 28.0132 36.328L21.3004 36.328C21.3004 35.6334 21.1633 34.9457 20.897 34.3041C20.6306 33.6624 20.2402 33.0794 19.748 32.5883C19.2558 32.0972 18.6715 31.7077 18.0284 31.4419C17.3853 31.1761 16.6961 31.0393 16 31.0393L16 24.3415Z" fill="#FF183D"/>
<path d="M21.3534 36.328C21.3534 34.7539 21.6642 33.1952 22.2679 31.7409C22.8716 30.2867 23.7565 28.9653 24.872 27.8523C25.9875 26.7392 27.3119 25.8563 28.7694 25.2539C30.2269 24.6515 31.789 24.3415 33.3666 24.3415V31.0393C32.6705 31.0393 31.9813 31.1761 31.3382 31.4419C30.6951 31.7077 30.1108 32.0972 29.6186 32.5883C29.1264 33.0794 28.736 33.6624 28.4696 34.3041C28.2033 34.9457 28.0662 35.6334 28.0662 36.328L21.3534 36.328Z" fill="#0381EB"/>
<path d="M28.5132 19C28.5132 18.7239 28.2893 18.5 28.0132 18.5H21.3004C21.0243 18.5 20.8004 18.7239 20.8004 19C20.8004 19.6287 20.6763 20.2513 20.4352 20.8322C20.194 21.4131 19.8405 21.941 19.3948 22.3857C18.9491 22.8304 18.4199 23.1832 17.8374 23.424L18.0284 23.8861L17.8374 23.424C17.2549 23.6647 16.6306 23.7886 16 23.7886C15.7239 23.7886 15.5 24.0125 15.5 24.2886V24.3408C15.5 24.341 15.5 24.3413 15.5 24.3415L15.5 27.5555L15.5 30.9865C15.5 30.9867 15.5 30.9869 15.5 30.9872V31.0393C15.5 31.3155 15.7239 31.5393 16 31.5393C16.6306 31.5393 17.2549 31.6632 17.8374 31.904C18.4199 32.1447 18.9491 32.4976 19.3948 32.9423C19.8405 33.387 20.194 33.9149 20.4352 34.4958C20.6763 35.0767 20.8004 35.6993 20.8004 36.328C20.8004 36.6041 21.0243 36.828 21.3004 36.828H21.3534L28.0132 36.828C28.0132 36.828 28.0133 36.828 28.0133 36.828H28.0662C28.1988 36.828 28.326 36.7753 28.4197 36.6815C28.5135 36.5877 28.5662 36.4606 28.5662 36.328C28.5662 35.6993 28.6903 35.0767 28.9314 34.4958C29.1726 33.9149 29.5261 33.387 29.9718 32.9423C30.4175 32.4976 30.9467 32.1447 31.5292 31.904C32.1117 31.6632 32.736 31.5393 33.3666 31.5393C33.4992 31.5393 33.6264 31.4866 33.7202 31.3929C33.8139 31.2991 33.8666 31.1719 33.8666 31.0393V24.3415C33.8666 24.0654 33.6427 23.8415 33.3666 23.8415C31.7235 23.8415 30.0965 24.1644 28.5784 24.7918C27.8082 25.1101 27.0737 25.5037 26.3852 25.9655C26.8477 25.279 27.2417 24.5467 27.5605 23.7787C28.1895 22.2637 28.5132 20.6399 28.5132 19Z" stroke="white"/>
</svg>
