<svg width="321" height="59" viewBox="0 0 321 59" fill="none" xmlns="http://www.w3.org/2000/svg">
<path d="M316.879 57.0205C315.252 57.0205 313.756 56.8373 312.392 56.4707C311.08 56.1565 309.925 55.6591 308.928 54.9783C307.983 54.2976 307.17 53.4336 306.487 52.3863C305.805 51.339 305.307 50.1346 304.992 48.7731C304.677 47.4117 304.519 45.8931 304.519 44.2174L304.441 4.86559C304.441 4.13248 304.519 3.50411 304.677 2.98047C304.834 2.45682 305.149 2.03791 305.622 1.72372C306.146 1.40954 306.907 1.25244 307.904 1.25244C308.954 1.25244 309.715 1.40954 310.187 1.72372C310.712 1.98555 311.053 2.37828 311.211 2.90192C311.368 3.3732 311.447 3.97539 311.447 4.70849V44.4531C311.447 45.3956 311.552 46.2073 311.762 46.888C311.972 47.5688 312.287 48.1709 312.706 48.6946C313.179 49.1659 313.756 49.5062 314.438 49.7157C315.121 49.9252 315.934 50.0299 316.879 50.0299C317.771 50.0299 318.479 50.1346 319.004 50.3441C319.529 50.5535 319.896 50.9201 320.106 51.4437C320.369 51.9674 320.5 52.6743 320.5 53.5645C320.5 54.4023 320.369 55.0831 320.106 55.6067C319.844 56.078 319.45 56.4183 318.926 56.6278C318.401 56.8896 317.718 57.0205 316.879 57.0205ZM298.3 57.0205C296.726 57.0205 295.283 56.8373 293.971 56.4707C292.711 56.1565 291.609 55.6852 290.664 55.0569C289.72 54.3761 288.932 53.5383 288.303 52.5434C287.673 51.4961 287.201 50.2917 286.886 48.9302C286.623 47.5164 286.492 45.9455 286.492 44.2174V4.86559C286.492 4.13248 286.571 3.50411 286.728 2.98047C286.886 2.45682 287.201 2.03791 287.673 1.72372C288.198 1.40954 288.959 1.25244 289.956 1.25244C290.953 1.25244 291.688 1.40954 292.16 1.72372C292.685 1.98555 293.026 2.37828 293.183 2.90192C293.393 3.3732 293.498 3.97539 293.498 4.70849V44.4531C293.498 45.6575 293.682 46.6786 294.049 47.5164C294.417 48.3542 294.968 48.9826 295.703 49.4015C296.437 49.8204 297.303 50.0299 298.3 50.0299C299.088 50.0299 299.717 50.1346 300.19 50.3441C300.662 50.5535 301.003 50.9201 301.213 51.4437C301.423 51.9674 301.528 52.6743 301.528 53.5645C301.528 54.4023 301.397 55.0831 301.134 55.6067C300.924 56.078 300.583 56.4183 300.111 56.6278C299.691 56.8896 299.088 57.0205 298.3 57.0205Z" fill="#004487"/>
<path d="M262.479 57.4133C259.33 57.4133 256.522 56.8896 254.056 55.8423C251.589 54.795 249.49 53.3812 247.758 51.6008C246.079 49.7681 244.793 47.6735 243.901 45.3171C243.008 42.9607 242.562 40.421 242.562 37.6981C242.562 34.0849 243.402 30.8645 245.081 28.0368C246.761 25.2092 249.07 22.9837 252.009 21.3604C255 19.6847 258.412 18.8469 262.243 18.8469C264.867 18.8469 267.202 19.2658 269.249 20.1036C271.348 20.8891 273.133 21.9626 274.602 23.324C276.072 24.6855 277.2 26.2041 277.987 27.8797C278.774 29.5554 279.168 31.2311 279.168 32.9067C279.168 35.5773 278.538 37.4624 277.279 38.5621C276.019 39.6094 274.471 40.133 272.634 40.133H249.883C249.831 42.437 250.434 44.4269 251.694 46.1026C253.006 47.7259 254.633 48.9826 256.575 49.8728C258.569 50.763 260.563 51.2081 262.558 51.2081C264.027 51.2081 265.287 51.1295 266.336 50.9725C267.386 50.8154 268.304 50.6059 269.092 50.3441C269.879 50.0822 270.561 49.8204 271.138 49.5586C271.716 49.2968 272.214 49.035 272.634 48.7731C273.106 48.5113 273.552 48.328 273.972 48.2233C274.445 48.1186 274.891 48.171 275.311 48.3804C275.783 48.5375 276.15 48.8779 276.413 49.4015C276.728 49.8204 276.937 50.2132 277.042 50.5797C277.147 50.9463 277.2 51.339 277.2 51.7579C277.2 52.491 276.57 53.3027 275.311 54.1929C274.051 55.0831 272.293 55.8423 270.036 56.4707C267.832 57.0991 265.313 57.4133 262.479 57.4133ZM249.883 35.4988H269.643C270.64 35.4988 271.374 35.3679 271.847 35.106C272.372 34.8442 272.634 34.1373 272.634 32.9853C272.634 31.5191 272.188 30.21 271.296 29.0579C270.404 27.8536 269.17 26.8848 267.596 26.1517C266.074 25.4186 264.316 25.0521 262.321 25.0521C260.012 25.0521 257.887 25.5233 255.945 26.4659C254.056 27.3561 252.56 28.5867 251.458 30.1576C250.356 31.7285 249.831 33.5089 249.883 35.4988Z" fill="#004487"/>
<path d="M199.252 56.7849C198.465 56.7849 197.835 56.654 197.363 56.3922C196.943 56.1827 196.602 55.8947 196.34 55.5281C196.13 55.1092 195.972 54.6641 195.867 54.1929L183.666 23.2455C183.403 22.46 183.272 21.8055 183.272 21.2818C183.324 20.7582 183.534 20.3131 183.902 19.9465C184.322 19.58 184.925 19.2658 185.712 19.004C186.972 18.5327 187.943 18.428 188.625 18.6898C189.307 18.8992 189.858 19.58 190.278 20.732L199.252 44.6102L207.597 21.2818C207.754 20.8629 207.938 20.4702 208.148 20.1036C208.41 19.6847 208.778 19.3443 209.25 19.0825C209.722 18.8207 210.326 18.6898 211.061 18.6898C211.9 18.6898 212.53 18.8207 212.95 19.0825C213.422 19.3443 213.79 19.6585 214.052 20.0251C214.367 20.3916 214.577 20.7844 214.682 21.2033L222.948 44.7673L231.922 21.1247C232.394 19.868 232.972 19.0563 233.654 18.6898C234.389 18.3232 235.386 18.3756 236.645 18.8469C237.747 19.2134 238.482 19.7371 238.849 20.4178C239.217 21.0986 239.138 22.0673 238.613 23.324L226.411 54.2714C226.254 54.6903 226.044 55.1092 225.782 55.5281C225.572 55.8947 225.231 56.1827 224.758 56.3922C224.338 56.654 223.761 56.7849 223.026 56.7849C222.292 56.7849 221.714 56.6802 221.294 56.4707C220.875 56.2612 220.534 55.9471 220.271 55.5281C220.009 55.0569 219.773 54.5594 219.563 54.0358L211.139 29.8434L202.637 54.0358C202.428 54.6641 202.191 55.1878 201.929 55.6067C201.719 56.0256 201.404 56.3136 200.984 56.4707C200.564 56.6802 199.987 56.7849 199.252 56.7849Z" fill="#004487"/>
<path d="M164.769 57.1776C162.04 57.1776 159.468 56.7325 157.054 55.8423C154.692 54.9521 152.593 53.6692 150.756 51.9936C148.972 50.3179 147.555 48.328 146.505 46.024C145.508 43.6676 145.009 40.997 145.009 38.0123C145.009 35.0275 145.508 32.3831 146.505 30.0791C147.555 27.7227 148.972 25.7066 150.756 24.031C152.54 22.3553 154.613 21.0724 156.975 20.1822C159.389 19.292 161.935 18.8469 164.611 18.8469C166.396 18.8469 168.154 19.1349 169.885 19.7109C171.617 20.2345 173.139 20.9415 174.451 21.8317C175.816 22.6695 176.787 23.5597 177.364 24.5022C177.889 25.183 178.256 25.759 178.466 26.2303C178.729 26.6492 178.755 27.1466 178.545 27.7227C178.335 28.1416 178.046 28.5343 177.679 28.9009C177.312 29.215 176.944 29.4769 176.577 29.6863C175.632 30.4194 174.688 30.5241 173.743 30.0005C173.166 29.4245 172.51 28.9009 171.775 28.4296C171.093 27.9059 170.358 27.4346 169.571 27.0157C168.783 26.5968 167.97 26.2826 167.13 26.0732C166.343 25.8113 165.503 25.6804 164.611 25.6804C162.145 25.6804 159.967 26.2041 158.077 27.2514C156.188 28.2463 154.718 29.6863 153.669 31.5714C152.672 33.4042 152.173 35.5511 152.173 38.0123C152.173 40.4734 152.672 42.6203 153.669 44.4531C154.718 46.2858 156.162 47.7259 157.999 48.7731C159.888 49.8204 162.04 50.3441 164.454 50.3441C165.556 50.3441 166.605 50.2132 167.603 49.9513C168.652 49.6371 169.623 49.2444 170.515 48.7731C171.407 48.2495 172.142 47.6997 172.719 47.1237C173.244 46.7571 173.69 46.4429 174.058 46.1811C174.425 45.9193 174.871 45.7884 175.396 45.7884C175.816 45.7884 176.262 45.9716 176.734 46.3382C177.207 46.6524 177.705 47.1499 178.23 47.8306C178.65 48.3019 178.886 48.7993 178.938 49.323C179.043 49.8466 178.965 50.3441 178.702 50.8154C178.44 51.2866 178.02 51.7579 177.443 52.2292C176.603 53.067 175.475 53.8787 174.058 54.6641C172.693 55.3972 171.198 55.9994 169.571 56.4707C167.944 56.942 166.343 57.1776 164.769 57.1776Z" fill="#004487"/>
<path d="M122.685 57.0205C121.688 57.0205 120.927 56.8634 120.402 56.5493C119.93 56.2874 119.615 55.8947 119.457 55.3711C119.352 54.795 119.3 54.1405 119.3 53.4074V22.46C119.3 21.6746 119.379 21.02 119.536 20.4964C119.694 19.9727 120.008 19.6062 120.481 19.3967C120.953 19.1349 121.714 19.004 122.764 19.004C123.708 19.004 124.417 19.1349 124.889 19.3967C125.414 19.6062 125.755 19.9465 125.913 20.4178C126.123 20.8367 126.227 21.3342 126.227 21.9102L125.913 24.2666C126.28 23.5859 126.7 22.9051 127.172 22.2244C127.697 21.5437 128.327 20.9415 129.061 20.4178C129.849 19.8418 130.767 19.3705 131.817 19.004C132.919 18.6374 134.257 18.4542 135.832 18.4542C136.619 18.4542 137.354 18.5327 138.036 18.6898C138.77 18.7945 139.453 18.9778 140.083 19.2396C140.765 19.5014 141.342 19.8156 141.814 20.1822C142.287 20.4964 142.654 20.8629 142.917 21.2818C143.231 21.6484 143.389 22.0935 143.389 22.6171C143.389 23.7691 143.021 24.7641 142.287 25.6019C141.552 26.3874 140.791 26.7801 140.004 26.7801C139.322 26.7801 138.823 26.7015 138.508 26.5445C138.193 26.335 137.878 26.1255 137.563 25.9161C137.301 25.7066 136.907 25.5233 136.383 25.3663C135.858 25.1568 135.018 25.0521 133.864 25.0521C133.076 25.0521 132.237 25.2092 131.344 25.5233C130.505 25.8375 129.691 26.3088 128.904 26.9372C128.117 27.5132 127.461 28.2725 126.936 29.215C126.464 30.1576 126.227 31.2572 126.227 32.514V53.5645C126.227 54.2976 126.149 54.926 125.991 55.4496C125.834 55.9732 125.493 56.366 124.968 56.6278C124.496 56.8896 123.735 57.0205 122.685 57.0205Z" fill="#004487"/>
<path d="M106.451 56.942C105.297 56.942 104.457 56.7063 103.932 56.2351C103.46 55.7638 103.171 55.0307 103.066 54.0358L103.381 50.1084C102.856 50.9463 102.043 51.915 100.941 53.0147C99.8385 54.0619 98.3952 55.0045 96.6109 55.8423C94.8265 56.6278 92.6485 57.0205 90.077 57.0205C87.5579 57.0205 85.1962 56.5231 82.992 55.5281C80.8403 54.5332 78.9247 53.1456 77.2453 51.3652C75.6184 49.5848 74.3326 47.5426 73.388 45.2385C72.4958 42.9345 72.0497 40.4734 72.0497 37.8552C72.0497 35.2893 72.4958 32.8805 73.388 30.6289C74.3326 28.3248 75.6446 26.3088 77.324 24.5808C79.0034 22.8528 80.919 21.4913 83.0707 20.4964C85.2749 19.5014 87.6103 19.004 90.077 19.004C92.3861 19.004 94.3542 19.3182 95.9811 19.9465C97.608 20.5225 98.9988 21.308 100.153 22.3029C101.36 23.2455 102.41 24.319 103.302 25.5233L103.145 22.2244C103.092 21.0724 103.328 20.2607 103.853 19.7894C104.431 19.2658 105.323 19.004 106.53 19.004C107.527 19.004 108.235 19.1611 108.655 19.4753C109.128 19.7894 109.443 20.2345 109.6 20.8106C109.757 21.3866 109.836 22.0935 109.836 22.9313V53.2503C109.836 53.9834 109.757 54.638 109.6 55.214C109.443 55.79 109.128 56.2089 108.655 56.4707C108.183 56.7849 107.448 56.942 106.451 56.942ZM91.2578 50.4226C93.3571 50.4226 95.2726 49.8728 97.0045 48.7731C98.7889 47.6735 100.18 46.2073 101.177 44.3745C102.226 42.4894 102.751 40.3425 102.751 37.9337C102.751 35.4726 102.2 33.3256 101.098 31.4929C100.048 29.6078 98.6314 28.1416 96.847 27.0943C95.1152 25.9946 93.1996 25.4448 91.1004 25.4448C88.6337 25.4448 86.482 26.0208 84.6452 27.1728C82.8608 28.2725 81.4438 29.7649 80.3942 31.65C79.3446 33.5351 78.8198 35.682 78.8198 38.0908C78.8198 40.4472 79.3446 42.568 80.3942 44.4531C81.4438 46.2858 82.8871 47.752 84.7239 48.8517C86.6132 49.899 88.7912 50.4226 91.2578 50.4226Z" fill="#004487"/>
<path d="M40.5439 0.452942C40.5439 5.69989 39.5082 10.8955 37.4958 15.743C35.4834 20.5905 32.5338 24.9951 28.8153 28.7053C25.0969 32.4154 20.6825 35.3585 15.8242 37.3664C10.9658 39.3743 5.75865 40.4078 0.5 40.4078L0.500003 18.0817C2.82021 18.0817 5.1177 17.6258 7.2613 16.7398C9.4049 15.8539 11.3526 14.5554 12.9932 12.9184C14.6339 11.2814 15.9353 9.33802 16.8232 7.19919C17.7111 5.06037 18.1681 2.76799 18.1681 0.452942H40.5439Z" fill="#FFD34F"/>
<path d="M0.500001 18.258C5.75865 18.258 10.9658 19.2914 15.8242 21.2994C20.6825 23.3073 25.0969 26.2503 28.8153 29.9605C32.5338 33.6706 35.4834 38.0752 37.4958 42.9228C39.5082 47.7703 40.5439 52.9659 40.5439 58.2128L18.1681 58.2128C18.1681 55.8978 17.7111 53.6054 16.8232 51.4666C15.9353 49.3277 14.6339 47.3843 12.9933 45.7474C11.3526 44.1104 9.4049 42.8118 7.2613 41.9259C5.11771 41.04 2.82021 40.584 0.500002 40.584L0.500001 18.258Z" fill="#FF183D"/>
<path d="M18.3447 58.2128C18.3447 52.9659 19.3805 47.7703 21.3929 42.9228C23.4053 38.0752 26.3549 33.6706 30.0733 29.9605C33.7918 26.2503 38.2062 23.3073 43.0645 21.2994C47.9229 19.2914 53.13 18.258 58.3887 18.258V40.584C56.0685 40.584 53.771 41.04 51.6274 41.9259C49.4838 42.8119 47.5361 44.1104 45.8954 45.7474C44.2548 47.3843 42.9534 49.3277 42.0655 51.4666C41.1776 53.6054 40.7206 55.8978 40.7206 58.2128L18.3447 58.2128Z" fill="#0381EB"/>
</svg>
