<svg width="375" height="560" viewBox="0 0 375 560" fill="none" xmlns="http://www.w3.org/2000/svg">
<g opacity="0.2">
<path d="M295.067 0.21283C295.067 51.0231 285.029 101.336 265.527 148.278C246.025 195.221 217.44 237.874 181.405 273.802C145.369 309.731 102.589 338.231 55.5068 357.675C8.42444 377.119 -42.0382 387.127 -92.9998 387.127L-92.9997 170.926C-70.5145 170.926 -48.2495 166.511 -27.4759 157.932C-6.70231 149.352 12.173 136.778 28.0725 120.926C43.9719 105.073 56.584 86.254 65.1888 65.5421C73.7935 44.8302 78.2223 22.6313 78.2223 0.21283H295.067Z" fill="#FFD34F"/>
<path d="M-92.9998 172.633C-42.0382 172.633 8.42442 182.641 55.5068 202.085C102.589 221.529 145.369 250.029 181.405 285.957C217.44 321.886 246.025 364.539 265.527 411.481C285.029 458.424 295.067 508.737 295.067 559.547L78.2223 559.547C78.2223 537.129 73.7935 514.93 65.1888 494.218C56.584 473.506 43.9719 454.687 28.0725 438.834C12.173 422.982 -6.70232 410.407 -27.4759 401.828C-48.2495 393.249 -70.5146 388.833 -92.9998 388.833L-92.9998 172.633Z" fill="#FF183D"/>
<path d="M79.9332 559.547C79.9332 508.737 89.9708 458.424 109.473 411.481C128.975 364.539 157.56 321.886 193.595 285.957C229.631 250.029 272.411 221.529 319.493 202.085C366.575 182.641 417.038 172.633 468 172.633L468 388.833C445.514 388.833 423.249 393.249 402.476 401.828C381.702 410.407 362.827 422.982 346.927 438.834C331.028 454.687 318.416 473.506 309.811 494.218C301.206 514.93 296.778 537.129 296.778 559.547L79.9332 559.547Z" fill="#0381EB"/>
</g>
</svg>
